<svg width="234" height="32" viewBox="0 0 234 32" fill="none" xmlns="http://www.w3.org/2000/svg">
<g clip-path="url(#clip0_2276_36446)">
<path d="M225.528 25.2428C222.855 25.2428 220.748 24.7095 219.206 23.6428C217.767 22.6288 216.946 21.2448 216.742 19.4908C216.718 19.2846 216.891 19.1095 217.107 19.1095H220.857C221.042 19.1095 221.198 19.2407 221.24 19.4144C221.427 20.1907 221.849 20.7804 222.506 21.1835C223.245 21.6181 224.315 21.8354 225.713 21.8354C228.077 21.8354 229.259 21.1835 229.259 19.8798C229.259 19.3268 229.074 18.9021 228.704 18.6058C228.354 18.3095 227.758 18.0823 226.915 17.9243L222.814 17.1835C219.216 16.5119 217.417 14.8724 217.417 12.265C217.417 10.586 218.106 9.25269 219.484 8.26504C220.861 7.25763 222.752 6.75391 225.158 6.75391C227.604 6.75391 229.536 7.26751 230.955 8.29466C232.292 9.23043 233.078 10.5326 233.315 12.2013C233.345 12.4102 233.172 12.5909 232.952 12.5909H229.213C229.041 12.5909 228.892 12.477 228.841 12.3185C228.6 11.5697 228.195 11.0185 227.624 10.665C227.008 10.2502 226.113 10.0428 224.942 10.0428C223.893 10.0428 223.091 10.2008 222.537 10.5169C221.981 10.8329 221.704 11.2971 221.704 11.9095C221.704 12.3638 221.879 12.7292 222.228 13.0058C222.577 13.2823 223.133 13.4897 223.893 13.628L228.056 14.3983C229.948 14.7539 231.335 15.3465 232.219 16.1761C233.103 17.0058 233.545 18.1218 233.545 19.5243C233.545 21.3218 232.856 22.7243 231.479 23.7317C230.102 24.7391 228.118 25.2428 225.528 25.2428Z" fill="black"/>
<path d="M209.416 24.8889C209.209 24.8889 209.041 24.7278 209.041 24.529V0.359907C209.041 0.161137 209.209 0 209.416 0H213.261C213.468 0 213.636 0.161135 213.636 0.359906V24.529C213.636 24.7278 213.468 24.8889 213.261 24.8889H209.416Z" fill="black"/>
<path d="M200.607 24.8889C200.4 24.8889 200.232 24.7278 200.232 24.529V0.359907C200.232 0.161137 200.4 0 200.607 0H204.452C204.659 0 204.827 0.161135 204.827 0.359906V24.529C204.827 24.7278 204.659 24.8889 204.452 24.8889H200.607Z" fill="black"/>
<path d="M187.368 25.2428C185.374 25.2428 183.637 24.8675 182.157 24.1169C180.697 23.3465 179.557 22.27 178.734 20.8873C177.932 19.5045 177.531 17.8749 177.531 15.9983C177.531 14.1021 177.932 12.4626 178.734 11.0798C179.557 9.69713 180.707 8.63048 182.188 7.87985C183.668 7.12922 185.395 6.75391 187.368 6.75391C189.383 6.75391 191.11 7.12922 192.549 7.87985C194.008 8.63048 195.139 9.69713 195.941 11.0798C196.743 12.4626 197.144 14.1021 197.144 15.9983C197.144 17.8749 196.743 19.5144 195.941 20.9169C195.139 22.2996 194.008 23.3662 192.549 24.1169C191.089 24.8675 189.363 25.2428 187.368 25.2428ZM187.368 21.3909C189.013 21.3909 190.287 20.9169 191.192 19.9687C192.097 19.0009 192.549 17.6774 192.549 15.9983C192.549 14.2996 192.097 12.9761 191.192 12.028C190.287 11.0798 189.013 10.6058 187.368 10.6058C185.703 10.6058 184.408 11.0798 183.483 12.028C182.578 12.9761 182.126 14.2897 182.126 15.9687C182.126 17.6675 182.578 19.0009 183.483 19.9687C184.408 20.9169 185.703 21.3909 187.368 21.3909Z" fill="black"/>
<path d="M163.191 25.2445C161.3 25.2445 159.696 24.8691 158.38 24.1185C157.064 23.3481 156.057 22.2716 155.358 20.8889C154.68 19.4864 154.341 17.8568 154.341 16C154.341 14.1235 154.669 12.4938 155.327 11.1111C156.006 9.72839 156.972 8.66174 158.226 7.91111C159.501 7.14073 161.022 6.75554 162.79 6.75554C164.187 6.75554 165.39 7.01232 166.398 7.52592C167.391 8.01296 168.155 8.72103 168.688 9.64999C168.702 9.6739 168.728 9.68889 168.756 9.68889C168.799 9.68889 168.834 9.65561 168.834 9.61461V0.359905C168.834 0.161135 169.001 0 169.208 0H173.054C173.261 0 173.428 0.161135 173.428 0.359906V20.1142C173.428 20.3129 173.596 20.4741 173.803 20.4741H175.336C175.543 20.4741 175.71 20.6352 175.71 20.834V24.529C175.71 24.7277 175.543 24.8889 175.336 24.8889H171.398C171.191 24.8889 171.023 24.7277 171.023 24.529V22.4044C171.023 22.2056 170.855 22.0445 170.649 22.0445H169.938C169.807 22.0445 169.687 22.1097 169.616 22.2142C168.972 23.1591 168.136 23.8926 167.107 24.4148C166.017 24.9679 164.712 25.2445 163.191 25.2445ZM163.992 21.4222C165.472 21.4222 166.644 21.0272 167.508 20.2371C168.392 19.4272 168.834 18.3407 168.834 16.9778V15.0222C168.834 13.6593 168.392 12.5827 167.508 11.7926C166.644 10.9827 165.472 10.5778 163.992 10.5778C162.348 10.5778 161.094 11.0617 160.231 12.0296C159.367 12.9778 158.935 14.3012 158.935 16C158.935 17.6988 159.367 19.0321 160.231 20C161.094 20.9481 162.348 21.4222 163.992 21.4222Z" fill="black"/>
<path d="M142.875 24.8892C142.668 24.8892 142.501 24.728 142.501 24.5293V11.8861C142.501 11.6873 142.333 11.5262 142.126 11.5262H140.593C140.386 11.5262 140.219 11.365 140.219 11.1663V7.47128C140.219 7.27252 140.386 7.11138 140.593 7.11138H144.531C144.738 7.11138 144.906 7.27252 144.906 7.47128V10.1885C144.906 10.3873 145.074 10.5484 145.281 10.5484H145.951C146.103 10.5484 146.238 10.4606 146.301 10.3286C146.815 9.25149 147.573 8.42603 148.575 7.85208C149.644 7.23974 150.868 6.93359 152.245 6.93359H153.412C153.619 6.93359 153.787 7.09474 153.787 7.2935V10.3663C153.787 10.565 153.619 10.7262 153.412 10.7262H152.029C150.343 10.7262 149.09 11.1904 148.267 12.1188C147.445 13.0471 147.034 14.2818 147.034 15.8225V24.5293C147.034 24.728 146.866 24.8892 146.659 24.8892H142.875Z" fill="black"/>
<path d="M129.158 25.2428C127.185 25.2428 125.458 24.8675 123.978 24.1169C122.518 23.3465 121.387 22.27 120.586 20.8873C119.804 19.4848 119.414 17.8354 119.414 15.9391C119.414 14.0428 119.804 12.4132 120.586 11.0502C121.367 9.66751 122.477 8.61073 123.916 7.87985C125.355 7.12922 127.041 6.75391 128.973 6.75391C130.865 6.75391 132.489 7.10947 133.845 7.8206C135.202 8.51194 136.251 9.51935 136.99 10.8428C137.731 12.1465 138.101 13.6971 138.101 15.4947V16.6755C138.101 16.8743 137.933 17.0354 137.726 17.0354H124.245C124.021 17.0354 123.846 17.2238 123.883 17.4364C124.111 18.744 124.635 19.7658 125.458 20.5021C126.383 21.2922 127.606 21.6873 129.128 21.6873C130.258 21.6873 131.173 21.4897 131.872 21.0947C132.518 20.722 132.99 20.19 133.289 19.4985C133.349 19.3563 133.49 19.2576 133.651 19.2576H137.542C137.781 19.2576 137.96 19.4709 137.896 19.6927C137.416 21.363 136.457 22.6896 135.017 23.6724C133.476 24.7193 131.523 25.2428 129.158 25.2428ZM124.068 13.6062C123.997 13.8274 124.176 14.0428 124.417 14.0428H133.265C133.491 14.0428 133.667 13.8516 133.623 13.6387C133.411 12.6119 132.94 11.8182 132.211 11.2576C131.409 10.6058 130.33 10.2798 128.973 10.2798C127.637 10.2798 126.537 10.6058 125.674 11.2576C124.918 11.8284 124.382 12.6113 124.068 13.6062Z" fill="black"/>
<path d="M98.5911 24.8889C98.3841 24.8889 98.2167 24.7278 98.2167 24.529V0.359907C98.2167 0.161137 98.3841 0 98.5911 0H102.437C102.644 0 102.811 0.161135 102.811 0.359906V9.67267C102.811 9.71436 102.846 9.74814 102.89 9.74814C102.918 9.74814 102.943 9.73397 102.958 9.71111C103.551 8.76158 104.356 8.04309 105.371 7.55555C106.398 7.04199 107.612 6.78517 109.009 6.78517C111.333 6.78517 113.172 7.4568 114.529 8.79998C115.907 10.1432 116.595 11.9309 116.595 14.163V24.529C116.595 24.7278 116.427 24.8889 116.221 24.8889H112.375C112.168 24.8889 112.001 24.7278 112.001 24.529V14.9926C112.001 13.5901 111.61 12.5235 110.829 11.7926C110.047 11.0617 108.907 10.6963 107.406 10.6963C105.905 10.6963 104.764 11.0617 103.983 11.7926C103.202 12.5235 102.811 13.5901 102.811 14.9926V24.529C102.811 24.7278 102.644 24.8889 102.437 24.8889H98.5911Z" fill="black"/>
<path d="M76.5718 31.9983C76.3649 31.9983 76.1974 31.8372 76.1974 31.6385V11.8842C76.1974 11.6854 76.0295 11.5243 75.823 11.5243H74.2901C74.0831 11.5243 73.9156 11.3631 73.9156 11.1644V7.46938C73.9156 7.27061 74.0831 7.10947 74.2901 7.10947H78.2589C78.4659 7.10947 78.6333 7.27061 78.6333 7.46938V9.594C78.6333 9.79276 78.8013 9.95391 79.0082 9.95391H79.7157C79.8479 9.95391 79.9693 9.88675 80.0402 9.77987C80.6653 8.83706 81.4917 8.10499 82.5189 7.58353C83.6084 7.03048 84.9239 6.75391 86.4658 6.75391C88.3575 6.75391 89.9608 7.13909 91.2763 7.90947C92.5922 8.6601 93.589 9.72675 94.2674 11.1095C94.9458 12.4922 95.2851 14.1218 95.2851 15.9983C95.2851 17.8749 94.9458 19.5045 94.2674 20.8873C93.6099 22.27 92.6536 23.3465 91.4 24.1169C90.1459 24.8675 88.6348 25.2428 86.8669 25.2428C85.4691 25.2428 84.2664 24.986 83.2587 24.4724C82.2653 23.9658 81.4917 23.2574 80.9379 22.3471C80.9241 22.3239 80.898 22.3095 80.8699 22.3095C80.8271 22.3095 80.7919 22.3431 80.7919 22.3845V31.6385C80.7919 31.8372 80.6244 31.9983 80.4174 31.9983H76.5718ZM85.6332 21.4206C87.2984 21.4206 88.5525 20.9465 89.3956 19.9984C90.2586 19.0305 90.6906 17.6971 90.6906 15.9983C90.6906 14.2996 90.2586 12.9761 89.3956 12.028C88.5525 11.0601 87.2984 10.5761 85.6332 10.5761C84.1736 10.5761 83.0018 10.9811 82.1178 11.7909C81.2339 12.5811 80.7919 13.6576 80.7919 15.0206V16.9761C80.7919 18.3391 81.2339 19.4255 82.1178 20.2354C83.0018 21.0255 84.1736 21.4206 85.6332 21.4206Z" fill="black"/>
<path d="M66.7453 24.8908C66.5384 24.8908 66.3709 24.7297 66.3709 24.5309V7.47294C66.3709 7.27417 66.5384 7.11303 66.7453 7.11303H70.5909C70.7979 7.11303 70.9654 7.27417 70.9654 7.47294V24.5309C70.9654 24.7297 70.7979 24.8908 70.5909 24.8908H66.7453ZM68.6527 5.15747C67.9333 5.15747 67.3167 4.92044 66.8024 4.44636C66.3091 3.95253 66.0626 3.35993 66.0626 2.66858C66.0626 1.97722 66.3091 1.3945 66.8024 0.920428C67.3167 0.426601 67.9333 0.179688 68.6527 0.179688C69.3725 0.179688 69.9786 0.426601 70.472 0.920428C70.9863 1.3945 71.2432 1.97722 71.2432 2.66858C71.2432 3.35993 70.9863 3.95253 70.472 4.44636C69.9786 4.92044 69.3725 5.15747 68.6527 5.15747Z" fill="black"/>
<path d="M55.1035 25.2428C53.1918 25.2428 51.5162 24.8675 50.077 24.1169C48.6383 23.3465 47.5177 22.27 46.7159 20.8873C45.9142 19.5045 45.5133 17.8749 45.5133 15.9983C45.5133 14.1218 45.9039 12.4922 46.6851 11.1095C47.4869 9.72675 48.6074 8.6601 50.0461 7.90947C51.4853 7.13909 53.1709 6.75391 55.1035 6.75391C57.488 6.75391 59.4619 7.33663 61.0239 8.50207C62.4769 9.56726 63.4317 11.0252 63.8894 12.8759C63.9436 13.0958 63.7662 13.3021 63.5311 13.3021H59.6599C59.4986 13.3021 59.3568 13.2024 59.2978 13.0582C58.9833 12.2894 58.4999 11.699 57.8481 11.2873C57.1283 10.8329 56.2134 10.6058 55.1035 10.6058C53.5825 10.6058 52.3693 11.0798 51.4648 12.028C50.5604 12.9564 50.1079 14.2798 50.1079 15.9983C50.1079 17.7169 50.5604 19.0502 51.4648 19.9984C52.3693 20.9268 53.5825 21.3909 55.1035 21.3909C57.3776 21.3909 58.8106 20.4926 59.402 18.6959C59.4534 18.5396 59.6013 18.428 59.7721 18.428H63.6625C63.8946 18.428 64.0716 18.6298 64.0226 18.8483C63.5859 20.8007 62.6377 22.3396 61.1785 23.465C59.6161 24.6502 57.5908 25.2428 55.1035 25.2428Z" fill="black"/>
<path d="M8.69269 26.6821V31.0635C8.69269 31.4476 9.01968 31.7618 9.41937 31.7618H13.9793C14.379 31.7618 14.706 31.4476 14.706 31.0635V26.6821C14.706 26.298 14.379 25.9838 13.9793 25.9838H10.0643C9.66462 25.9838 9.33758 25.6696 9.33758 25.2856V13.0576C9.33758 12.6736 9.01059 12.3594 8.6109 12.3594H3.39697C2.99729 12.3594 2.67029 12.6736 2.67029 13.0576V25.2856C2.67029 25.6696 2.99729 25.9838 3.39697 25.9838H7.95692C8.35656 25.9838 8.6836 26.298 8.6836 26.6821H8.69269Z" fill="black"/>
<path d="M5.29568 8.35307H0.726682C0.327007 8.35307 0 8.66727 0 9.05131V13.4328C0 13.8168 0.327007 14.131 0.726682 14.131H5.28664C5.68628 14.131 6.01332 13.8168 6.01332 13.4328V9.67102C6.01332 9.28697 6.34031 8.97277 6.74 8.97277H19.466C19.8657 8.97277 20.1927 8.65858 20.1927 8.27454V3.26465C20.1927 2.88061 19.8657 2.56641 19.466 2.56641H6.74904C6.3494 2.56641 6.02236 2.88061 6.02236 3.26465V7.6461C6.02236 8.03015 5.69537 8.34434 5.29568 8.34434V8.35307Z" fill="black"/>
<path d="M24.3617 5.08841V0.698239C24.3617 0.314209 24.0347 0 23.635 0H19.0751C18.6754 0 18.3484 0.314209 18.3484 0.698239V5.07973C18.3484 5.46373 18.6754 5.77797 19.0751 5.77797H22.9901C23.3898 5.77797 23.7168 6.09216 23.7168 6.47621V18.7041C23.7168 19.0882 24.0438 19.4024 24.4435 19.4024H29.6574C30.0571 19.4024 30.3841 19.0882 30.3841 18.7041V6.48494C30.3841 6.10089 30.0571 5.78665 29.6574 5.78665H25.0975C24.6978 5.78665 24.3708 5.47246 24.3708 5.08841H24.3617Z" fill="black"/>
<path d="M27.7686 23.4107H32.3285C32.7282 23.4107 33.0552 23.0965 33.0552 22.7125V18.3311C33.0552 17.947 32.7282 17.6328 32.3285 17.6328H27.7686C27.3689 17.6328 27.0419 17.947 27.0419 18.3311V22.0928C27.0419 22.4768 26.7149 22.7911 26.3152 22.7911H13.5892C13.1895 22.7911 12.8625 23.1053 12.8625 23.4893V28.4992C12.8625 28.8832 13.1895 29.1974 13.5892 29.1974H26.3152C26.7149 29.1974 27.0419 28.8832 27.0419 28.4992V24.1177C27.0419 23.7337 27.3689 23.4195 27.7686 23.4195V23.4107Z" fill="black"/>
</g>
<defs>
<clipPath id="clip0_2276_36446">
<rect width="234" height="32" fill="white"/>
</clipPath>
</defs>
</svg>
