<svg width="33" height="32" viewBox="0 0 33 32" fill="none" xmlns="http://www.w3.org/2000/svg">
<g clip-path="url(#clip0_2347_15730)">
<path d="M31.7583 1L18.0273 11.1599L20.5807 5.17235L31.7583 1Z" fill="#E17726"/>
<path d="M1.2738 1.01172L12.4214 5.17286L14.846 11.2389L1.2738 1.01172Z" fill="#E27625"/>
<path d="M26.2325 22.6055L32.3013 22.721L30.1803 29.9262L22.775 27.8873L26.2325 22.6055Z" fill="#E27625"/>
<path d="M6.7674 22.6055L10.2121 27.8873L2.81913 29.9264L0.71106 22.721L6.7674 22.6055Z" fill="#E27625"/>
<path d="M14.5163 9.69531L14.7644 17.7057L7.34302 17.3681L9.45397 14.1834L9.48069 14.1527L14.5163 9.69531Z" fill="#E27625"/>
<path d="M18.4068 9.60547L23.5193 14.1525L23.5457 14.183L25.6567 17.3677L18.2371 17.7053L18.4068 9.60547Z" fill="#E27625"/>
<path d="M10.4294 22.6289L14.4817 25.7863L9.77441 28.059L10.4294 22.6289Z" fill="#E27625"/>
<path d="M22.5714 22.6289L23.2127 28.0595L18.5187 25.7866L22.5714 22.6289Z" fill="#E27625"/>
<path d="M18.6223 25.4883L23.3856 27.7948L18.9547 29.9006L19.0007 28.5088L18.6223 25.4883Z" fill="#D5BFB2"/>
<path d="M14.3764 25.4922L14.0128 28.4889L14.0426 29.9018L9.60132 27.7976L14.3764 25.4922Z" fill="#D5BFB2"/>
<path d="M13.0009 18.75L14.2456 21.366L10.0077 20.1246L13.0009 18.75Z" fill="#233447"/>
<path d="M19.999 18.75L23.0062 20.1242L18.7545 21.3653L19.999 18.75Z" fill="#233447"/>
<path d="M10.7533 22.6055L10.0682 28.2354L6.39661 22.7285L10.7533 22.6055Z" fill="#CC6228"/>
<path d="M22.247 22.6055L26.6038 22.7285L22.9184 28.2356L22.247 22.6055Z" fill="#CC6228"/>
<path d="M25.764 17.0469L22.5933 20.2783L20.1488 19.1611L18.9783 21.6216L18.2111 17.3905L25.764 17.0469Z" fill="#CC6228"/>
<path d="M7.23444 17.0469L14.7887 17.3906L14.0214 21.6217L12.8508 19.1615L10.4191 20.2784L7.23444 17.0469Z" fill="#CC6228"/>
<path d="M7.02069 16.3867L10.608 20.0268L10.7323 23.6204L7.02069 16.3867Z" fill="#E27525"/>
<path d="M25.9829 16.3789L22.2646 23.6256L22.4046 20.0255L25.9829 16.3789Z" fill="#E27525"/>
<path d="M14.6133 16.6055L14.7577 17.5142L15.1145 19.7781L14.8851 26.7312L13.8007 21.1457L13.8004 21.0879L14.6133 16.6055Z" fill="#E27525"/>
<path d="M18.3848 16.5938L19.1999 21.0888L19.1995 21.1465L18.1124 26.746L18.0694 25.3455L17.8998 19.7377L18.3848 16.5938Z" fill="#E27525"/>
<path d="M22.7236 19.8789L22.6022 23.0011L18.8179 25.9496L18.0529 25.409L18.9104 20.9921L22.7236 19.8789Z" fill="#F5841F"/>
<path d="M10.2896 19.8789L14.0896 20.9922L14.9471 25.409L14.1821 25.9495L10.3976 23.0008L10.2896 19.8789Z" fill="#F5841F"/>
<path d="M8.87726 27.1055L13.7188 29.3995L13.6983 28.4199L14.1034 28.0643H18.8951L19.3148 28.4187L19.2839 29.3976L24.0947 27.1113L21.7538 29.0457L18.9231 30.9899H14.0646L11.2357 29.0378L8.87726 27.1055Z" fill="#C0AC9D"/>
<path d="M18.2754 25.1836L18.96 25.6671L19.3611 28.8677L18.7806 28.3775H14.2212L13.6517 28.8776L14.0396 25.6674L14.7244 25.1836H18.2754Z" fill="#161616"/>
<path d="M30.8518 1.28125L32.5 6.22594L31.4707 11.2255L32.2037 11.791L31.2118 12.5477L31.9572 13.1234L30.9702 14.0223L31.5762 14.4611L29.968 16.3394L23.3717 14.4188L23.3145 14.3882L18.5612 10.3784L30.8518 1.28125Z" fill="#763E1A"/>
<path d="M2.14825 1.28125L14.4389 10.3784L9.68555 14.3882L9.62839 14.4188L3.03209 16.3394L1.4239 14.4611L2.02941 14.0226L1.04281 13.1234L1.78682 12.5483L0.780167 11.7894L1.54079 11.2236L0.5 6.22612L2.14825 1.28125Z" fill="#763E1A"/>
<path d="M23.0489 14L30.0381 16.0349L32.3088 23.033L26.3183 23.033L22.1907 23.0851L25.1924 17.2341L23.0489 14Z" fill="#F5841F"/>
<path d="M9.95098 14L7.80708 17.2341L10.8093 23.0851L6.68365 23.033H0.703796L2.96172 16.0349L9.95098 14Z" fill="#F5841F"/>
<path d="M20.923 5.14062L18.9681 10.4205L18.5533 17.5531L18.3945 19.7887L18.3819 25.4996H14.618L14.6058 19.7994L14.4465 17.5511L14.0315 10.4205L12.0769 5.14062H20.923Z" fill="#F5841F"/>
</g>
<defs>
<clipPath id="clip0_2347_15730">
<rect width="32" height="32" fill="white" transform="translate(0.5)"/>
</clipPath>
</defs>
</svg>
