<svg width="24" height="24" viewBox="0 0 24 24" fill="none" xmlns="http://www.w3.org/2000/svg">
<path fill-rule="evenodd" clip-rule="evenodd" d="M12 5.75C11.4033 5.75 10.831 5.98705 10.409 6.40901C9.98705 6.83097 9.75 7.40326 9.75 8C9.75 8.59674 9.98705 9.16903 10.409 9.59099C10.831 10.0129 11.4033 10.25 12 10.25C12.5967 10.25 13.169 10.0129 13.591 9.59099C14.0129 9.16903 14.25 8.59674 14.25 8C14.25 7.40326 14.0129 6.83097 13.591 6.40901C13.169 5.98705 12.5967 5.75 12 5.75ZM9.34835 5.34835C10.0516 4.64509 11.0054 4.25 12 4.25C12.9946 4.25 13.9484 4.64509 14.6517 5.34835C15.3549 6.05161 15.75 7.00544 15.75 8C15.75 8.99456 15.3549 9.94839 14.6517 10.6517C13.9484 11.3549 12.9946 11.75 12 11.75C11.0054 11.75 10.0516 11.3549 9.34835 10.6517C8.64509 9.94839 8.25 8.99456 8.25 8C8.25 7.00544 8.64509 6.05161 9.34835 5.34835ZM7.34835 14.3483C8.05161 13.6451 9.00544 13.25 10 13.25H14C14.9946 13.25 15.9484 13.6451 16.6517 14.3483C17.3549 15.0516 17.75 16.0054 17.75 17V18C17.75 18.4641 17.5656 18.9092 17.2374 19.2374C16.9092 19.5656 16.4641 19.75 16 19.75H8C7.53587 19.75 7.09075 19.5656 6.76256 19.2374C6.43437 18.9092 6.25 18.4641 6.25 18V17C6.25 16.0054 6.64509 15.0516 7.34835 14.3483ZM10 14.75C9.40326 14.75 8.83097 14.9871 8.40901 15.409C7.98705 15.831 7.75 16.4033 7.75 17V18C7.75 18.0663 7.77634 18.1299 7.82322 18.1768C7.87011 18.2237 7.93369 18.25 8 18.25H16C16.0663 18.25 16.1299 18.2237 16.1768 18.1768C16.2237 18.1299 16.25 18.0663 16.25 18V17C16.25 16.4033 16.0129 15.831 15.591 15.409C15.169 14.9871 14.5967 14.75 14 14.75H10Z" fill="currentColor" />
</svg>
