<svg width="24" height="24" viewBox="0 0 24 24" fill="none" xmlns="http://www.w3.org/2000/svg">
<path fill-rule="evenodd" clip-rule="evenodd" d="M3.25 4C3.25 3.58579 3.58579 3.25 4 3.25H15C15.4142 3.25 15.75 3.58579 15.75 4V12C15.75 12.4142 15.4142 12.75 15 12.75H9.31066L6.53033 15.5303C6.31583 15.7448 5.99324 15.809 5.71299 15.6929C5.43273 15.5768 5.25 15.3033 5.25 15V12.75H4C3.58579 12.75 3.25 12.4142 3.25 12V4Z" fill="currentColor"/>
<path d="M20 8.25C20.4142 8.25 20.75 8.58579 20.75 9V17C20.75 17.4142 20.4142 17.75 20 17.75H18.75V20C18.75 20.3033 18.5673 20.5768 18.287 20.6929C18.0068 20.809 17.6842 20.7448 17.4697 20.5303L14.6893 17.75H9C8.58579 17.75 8.25 17.4142 8.25 17V15.932L9.93198 14.25H15C16.2426 14.25 17.25 13.2426 17.25 12V8.25H20Z" fill="currentColor"/>
</svg>
