<svg width="16" height="18" viewBox="0 0 16 18" fill="none" xmlns="http://www.w3.org/2000/svg">
<path fill-rule="evenodd" clip-rule="evenodd" d="M5.76256 0.762563C6.09075 0.434375 6.53587 0.25 7 0.25H14C14.4641 0.25 14.9092 0.434375 15.2374 0.762563C15.5656 1.09075 15.75 1.53587 15.75 2V12C15.75 12.4641 15.5656 12.9092 15.2374 13.2374C14.9092 13.5656 14.4641 13.75 14 13.75H12V12.25H14C14.0663 12.25 14.1299 12.2237 14.1768 12.1768C14.2237 12.1299 14.25 12.0663 14.25 12V2C14.25 1.93369 14.2237 1.87011 14.1768 1.82322C14.1299 1.77634 14.0663 1.75 14 1.75H7C6.9337 1.75 6.87011 1.77634 6.82322 1.82322C6.77634 1.87011 6.75 1.9337 6.75 2V3H5.25V2C5.25 1.53587 5.43437 1.09075 5.76256 0.762563ZM5.75 5.75V8C5.75 8.46413 5.56563 8.90925 5.23744 9.23744C4.90925 9.56563 4.46413 9.75 4 9.75H1.75V16C1.75 16.0663 1.77634 16.1299 1.82322 16.1768C1.87011 16.2237 1.93369 16.25 2 16.25H9C9.06631 16.25 9.12989 16.2237 9.17678 16.1768C9.22366 16.1299 9.25 16.0663 9.25 16V6C9.25 5.9337 9.22366 5.87011 9.17678 5.82322C9.12989 5.77634 9.0663 5.75 9 5.75H5.75ZM2.20209 8.25H4C4.0663 8.25 4.12989 8.22366 4.17678 8.17678C4.22366 8.12989 4.25 8.0663 4.25 8V5.86078L2.20209 8.25ZM0.25 8.87C0.249982 8.45292 0.398927 8.04954 0.67 7.73256L3.13005 4.8625C3.29426 4.67069 3.49855 4.51609 3.72791 4.41046C3.95749 4.30473 4.20725 4.24999 4.46 4.25H9C9.46413 4.25 9.90925 4.43437 10.2374 4.76256C10.5656 5.09075 10.75 5.53587 10.75 6V16C10.75 16.4641 10.5656 16.9092 10.2374 17.2374C9.90925 17.5656 9.46413 17.75 9 17.75H2C1.53587 17.75 1.09075 17.5656 0.762563 17.2374C0.434375 16.9092 0.25 16.4641 0.25 16V8.87Z" fill="black"/>
</svg>
