<svg width="24" height="24" viewBox="0 0 24 24" fill="none" xmlns="http://www.w3.org/2000/svg">
<path fill-rule="evenodd" clip-rule="evenodd" d="M3.72068 3.72068C4.02205 3.41931 4.4308 3.25 4.857 3.25H9.143C9.5692 3.25 9.97795 3.41931 10.2793 3.72068C10.5807 4.02205 10.75 4.4308 10.75 4.857V9.143C10.75 9.5692 10.5807 9.97795 10.2793 10.2793C9.97795 10.5807 9.5692 10.75 9.143 10.75H4.857C3.96979 10.75 3.25 10.0302 3.25 9.143V4.857C3.25 4.4308 3.41931 4.02205 3.72068 3.72068ZM4.857 4.75C4.82862 4.75 4.80141 4.76127 4.78134 4.78134C4.76127 4.80141 4.75 4.82862 4.75 4.857V9.143C4.75 9.20179 4.79821 9.25 4.857 9.25H9.143C9.17138 9.25 9.19859 9.23873 9.21866 9.21866C9.23873 9.19859 9.25 9.17138 9.25 9.143V4.857C9.25 4.82862 9.23873 4.80141 9.21866 4.78134C9.19859 4.76127 9.17138 4.75 9.143 4.75H4.857ZM13.7207 3.72068C14.0221 3.41931 14.4308 3.25 14.857 3.25H19.143C19.5692 3.25 19.9779 3.41931 20.2793 3.72068C20.5807 4.02205 20.75 4.4308 20.75 4.857V9.143C20.75 9.5692 20.5807 9.97795 20.2793 10.2793C19.978 10.5807 19.5692 10.75 19.143 10.75H14.857C13.9698 10.75 13.25 10.0302 13.25 9.143V4.857C13.25 4.4308 13.4193 4.02205 13.7207 3.72068ZM14.857 4.75C14.8286 4.75 14.8014 4.76127 14.7813 4.78134C14.7613 4.80141 14.75 4.82862 14.75 4.857V9.143C14.75 9.20179 14.7982 9.25 14.857 9.25H19.143C19.1714 9.25 19.1986 9.23873 19.2187 9.21866C19.2387 9.19859 19.25 9.17138 19.25 9.143V4.857C19.25 4.82862 19.2387 4.80141 19.2187 4.78134C19.1986 4.76127 19.1714 4.75 19.143 4.75H14.857ZM3.72068 13.7207C4.02205 13.4193 4.4308 13.25 4.857 13.25H9.143C9.5692 13.25 9.97795 13.4193 10.2793 13.7207C10.5807 14.022 10.75 14.4308 10.75 14.857V19.143C10.75 19.5692 10.5807 19.978 10.2793 20.2793C9.97795 20.5807 9.5692 20.75 9.143 20.75H4.857C3.96979 20.75 3.25 20.0302 3.25 19.143V14.857C3.25 14.4308 3.41931 14.0221 3.72068 13.7207ZM4.857 14.75C4.82862 14.75 4.80141 14.7613 4.78134 14.7813C4.76127 14.8014 4.75 14.8286 4.75 14.857V19.143C4.75 19.2018 4.79821 19.25 4.857 19.25H9.143C9.17138 19.25 9.19859 19.2387 9.21866 19.2187C9.23873 19.1986 9.25 19.1714 9.25 19.143V14.857C9.25 14.8286 9.23873 14.8014 9.21866 14.7813C9.19859 14.7613 9.17138 14.75 9.143 14.75H4.857ZM13.7207 13.7207C14.022 13.4193 14.4308 13.25 14.857 13.25H19.143C19.5692 13.25 19.978 13.4193 20.2793 13.7207C20.5807 14.0221 20.75 14.4308 20.75 14.857V19.143C20.75 19.5692 20.5807 19.9779 20.2793 20.2793C19.9779 20.5807 19.5692 20.75 19.143 20.75H14.857C13.9698 20.75 13.25 20.0302 13.25 19.143V14.857C13.25 14.4308 13.4193 14.022 13.7207 13.7207ZM14.857 14.75C14.8286 14.75 14.8014 14.7613 14.7813 14.7813C14.7613 14.8014 14.75 14.8286 14.75 14.857V19.143C14.75 19.2018 14.7982 19.25 14.857 19.25H19.143C19.1714 19.25 19.1986 19.2387 19.2187 19.2187C19.2387 19.1986 19.25 19.1714 19.25 19.143V14.857C19.25 14.8286 19.2387 14.8014 19.2187 14.7813C19.1986 14.7613 19.1714 14.75 19.143 14.75H14.857Z" fill="currentColor" />
</svg>
