<svg width="20" height="20" viewBox="0 0 20 20" fill="none" xmlns="http://www.w3.org/2000/svg">
<path fill-rule="evenodd" clip-rule="evenodd" d="M10 1.75C7.81196 1.75 5.71354 2.61919 4.16637 4.16637C2.61919 5.71354 1.75 7.81196 1.75 10C1.75 11.0834 1.96339 12.1562 2.37799 13.1571C2.79259 14.1581 3.40029 15.0675 4.16637 15.8336C4.93245 16.5997 5.84193 17.2074 6.84286 17.622C7.8438 18.0366 8.91659 18.25 10 18.25C11.0834 18.25 12.1562 18.0366 13.1571 17.622C14.1581 17.2074 15.0675 16.5997 15.8336 15.8336C16.5997 15.0675 17.2074 14.1581 17.622 13.1571C18.0366 12.1562 18.25 11.0834 18.25 10C18.25 7.81196 17.3808 5.71354 15.8336 4.16637C14.2865 2.61919 12.188 1.75 10 1.75ZM3.10571 3.10571C4.93419 1.27723 7.41414 0.25 10 0.25C12.5859 0.25 15.0658 1.27723 16.8943 3.10571C18.7228 4.93419 19.75 7.41414 19.75 10C19.75 11.2804 19.4978 12.5482 19.0078 13.7312C18.5178 14.9141 17.7997 15.9889 16.8943 16.8943C15.9889 17.7997 14.9141 18.5178 13.7312 19.0078C12.5482 19.4978 11.2804 19.75 10 19.75C8.71961 19.75 7.45176 19.4978 6.26884 19.0078C5.08591 18.5178 4.01108 17.7997 3.10571 16.8943C2.20034 15.9889 1.48216 14.9141 0.992174 13.7312C0.502191 12.5482 0.25 11.2804 0.25 10C0.25 7.41414 1.27723 4.93419 3.10571 3.10571ZM8.658 5.5C8.658 5.08579 8.99379 4.75 9.408 4.75H9.418C9.83221 4.75 10.168 5.08579 10.168 5.5C10.168 5.91421 9.83221 6.25 9.418 6.25H9.408C8.99379 6.25 8.658 5.91421 8.658 5.5ZM7.25 9C7.25 8.58579 7.58579 8.25 8 8.25H10C10.4142 8.25 10.75 8.58579 10.75 9V13.25H12C12.4142 13.25 12.75 13.5858 12.75 14C12.75 14.4142 12.4142 14.75 12 14.75H8C7.58579 14.75 7.25 14.4142 7.25 14C7.25 13.5858 7.58579 13.25 8 13.25H9.25V9.75H8C7.58579 9.75 7.25 9.41421 7.25 9Z" fill="#350D2A" fill-opacity="0.4"/>
</svg>
