<svg width="34" height="32" viewBox="0 0 34 32" fill="none" xmlns="http://www.w3.org/2000/svg">
<path d="M9.06789 26.8821V31.2965C9.06789 31.6834 9.39876 32 9.80317 32H14.417C14.8214 32 15.1523 31.6834 15.1523 31.2965V26.8821C15.1523 26.4952 14.8214 26.1787 14.417 26.1787H10.4557C10.0513 26.1787 9.72042 25.8621 9.72042 25.4752V13.1553C9.72042 12.7684 9.38956 12.4518 8.98514 12.4518H3.70953C3.30513 12.4518 2.97426 12.7684 2.97426 13.1553V25.4752C2.97426 25.8621 3.30513 26.1787 3.70953 26.1787H8.32342C8.72779 26.1787 9.0587 26.4952 9.0587 26.8821H9.06789Z" fill="black"/>
<path d="M5.63033 8.41528H1.00728C0.602879 8.41528 0.272003 8.73184 0.272003 9.11877V13.5332C0.272003 13.9201 0.602879 14.2367 1.00728 14.2367H5.62118C6.02555 14.2367 6.35646 13.9201 6.35646 13.5332V9.74313C6.35646 9.3562 6.68732 9.03964 7.09173 9.03964H19.9683C20.3727 9.03964 20.7036 8.72309 20.7036 8.33615V3.28861C20.7036 2.90169 20.3727 2.58512 19.9683 2.58512H7.10088C6.69651 2.58512 6.3656 2.90169 6.3656 3.28861V7.703C6.3656 8.08993 6.03474 8.40648 5.63033 8.40648V8.41528Z" fill="black"/>
<path d="M24.9218 5.12666V0.703487C24.9218 0.31657 24.5909 0 24.1865 0H19.5727C19.1683 0 18.8374 0.31657 18.8374 0.703487V5.1179C18.8374 5.50479 19.1683 5.82139 19.5727 5.82139H23.534C23.9384 5.82139 24.2693 6.13795 24.2693 6.52488V18.8447C24.2693 19.2317 24.6001 19.5482 25.0046 19.5482H30.2802C30.6846 19.5482 31.0155 19.2317 31.0155 18.8447V6.53368C31.0155 6.14675 30.6846 5.83014 30.2802 5.83014H25.6663C25.2619 5.83014 24.931 5.51359 24.931 5.12666H24.9218Z" fill="black"/>
<path d="M28.3689 23.5844H32.9828C33.3872 23.5844 33.718 23.2679 33.718 22.881V18.4666C33.718 18.0796 33.3872 17.7631 32.9828 17.7631H28.3689C27.9645 17.7631 27.6336 18.0796 27.6336 18.4666V22.2566C27.6336 22.6435 27.3027 22.9601 26.8984 22.9601H14.0218C13.6173 22.9601 13.2865 23.2767 13.2865 23.6636V28.7111C13.2865 29.0981 13.6173 29.4146 14.0218 29.4146H26.8984C27.3027 29.4146 27.6336 29.0981 27.6336 28.7111V24.2967C27.6336 23.9098 27.9645 23.5932 28.3689 23.5932V23.5844Z" fill="black"/>
</svg>
