<svg width="24" height="24" viewBox="0 0 24 24" fill="none" xmlns="http://www.w3.org/2000/svg">
<path fill-rule="evenodd" clip-rule="evenodd" d="M6.05546 4.05546C6.57118 3.53973 7.27065 3.25 8 3.25C8.72935 3.25 9.42882 3.53973 9.94454 4.05546C10.2793 4.39024 10.5189 4.80245 10.6458 5.25H20C20.4142 5.25 20.75 5.58579 20.75 6C20.75 6.41421 20.4142 6.75 20 6.75H10.6458C10.5189 7.19755 10.2793 7.60976 9.94454 7.94454C9.42882 8.46027 8.72935 8.75 8 8.75C7.27065 8.75 6.57118 8.46027 6.05546 7.94454C5.72067 7.60976 5.48112 7.19755 5.35424 6.75H4C3.58579 6.75 3.25 6.41421 3.25 6C3.25 5.58579 3.58579 5.25 4 5.25H5.35424C5.48112 4.80245 5.72067 4.39024 6.05546 4.05546ZM8 4.75C7.66848 4.75 7.35054 4.8817 7.11612 5.11612C6.8817 5.35054 6.75 5.66848 6.75 6C6.75 6.33152 6.8817 6.64946 7.11612 6.88388C7.35054 7.1183 7.66848 7.25 8 7.25C8.33152 7.25 8.64946 7.1183 8.88388 6.88388C9.1183 6.64946 9.25 6.33152 9.25 6C9.25 5.66848 9.1183 5.35054 8.88388 5.11612C8.64946 4.8817 8.33152 4.75 8 4.75ZM14.0555 10.0555C14.5712 9.53973 15.2707 9.25 16 9.25C16.7293 9.25 17.4288 9.53973 17.9445 10.0555C18.2793 10.3902 18.5189 10.8025 18.6458 11.25H20C20.4142 11.25 20.75 11.5858 20.75 12C20.75 12.4142 20.4142 12.75 20 12.75H18.6458C18.5189 13.1975 18.2793 13.6098 17.9445 13.9445C17.4288 14.4603 16.7293 14.75 16 14.75C15.2707 14.75 14.5712 14.4603 14.0555 13.9445C13.7207 13.6098 13.4811 13.1975 13.3542 12.75H4C3.58579 12.75 3.25 12.4142 3.25 12C3.25 11.5858 3.58579 11.25 4 11.25H13.3542C13.4811 10.8025 13.7207 10.3902 14.0555 10.0555ZM16 10.75C15.6685 10.75 15.3505 10.8817 15.1161 11.1161C14.8817 11.3505 14.75 11.6685 14.75 12C14.75 12.3315 14.8817 12.6495 15.1161 12.8839C15.3505 13.1183 15.6685 13.25 16 13.25C16.3315 13.25 16.6495 13.1183 16.8839 12.8839C17.1183 12.6495 17.25 12.3315 17.25 12C17.25 11.6685 17.1183 11.3505 16.8839 11.1161C16.6495 10.8817 16.3315 10.75 16 10.75ZM6.05546 16.0555C6.57118 15.5397 7.27065 15.25 8 15.25C8.72935 15.25 9.42882 15.5397 9.94454 16.0555C10.2793 16.3902 10.5189 16.8025 10.6458 17.25H20C20.4142 17.25 20.75 17.5858 20.75 18C20.75 18.4142 20.4142 18.75 20 18.75H10.6458C10.5189 19.1975 10.2793 19.6098 9.94454 19.9445C9.42882 20.4603 8.72935 20.75 8 20.75C7.27065 20.75 6.57118 20.4603 6.05546 19.9445C5.72067 19.6098 5.48113 19.1975 5.35424 18.75H4C3.58579 18.75 3.25 18.4142 3.25 18C3.25 17.5858 3.58579 17.25 4 17.25H5.35424C5.48113 16.8025 5.72067 16.3902 6.05546 16.0555ZM8 16.75C7.66848 16.75 7.35054 16.8817 7.11612 17.1161C6.8817 17.3505 6.75 17.6685 6.75 18C6.75 18.3315 6.8817 18.6495 7.11612 18.8839C7.35054 19.1183 7.66848 19.25 8 19.25C8.33152 19.25 8.64946 19.1183 8.88388 18.8839C9.1183 18.6495 9.25 18.3315 9.25 18C9.25 17.6685 9.1183 17.3505 8.88388 17.1161C8.64946 16.8817 8.33152 16.75 8 16.75Z" fill="currentColor"/>
</svg>
