<svg width="32" height="12" viewBox="0 0 32 12" fill="none" xmlns="http://www.w3.org/2000/svg">
<path d="M19.1153 0.022656C16.9099 0.022656 15.1188 1.81384 15.1188 4.01924C15.1188 6.2246 16.9099 8.0158 19.1153 8.0158C21.3207 8.0158 23.1119 6.2246 23.1119 4.01924C23.1119 1.81384 21.3207 0.0282536 19.1153 0.022656ZM19.1153 6.51568C17.7384 6.51568 16.6189 5.3962 16.6189 4.01924C16.6189 2.64226 17.7384 1.52277 19.1153 1.52277C20.4923 1.52277 21.6118 2.64226 21.6118 4.01924C21.6118 5.3962 20.4923 6.51568 19.1153 6.51568ZM4.03036 0.000209579C1.82498 -0.02218 0.0225992 1.75221 0.000209579 3.9576C-0.02218 6.163 1.75221 7.97096 3.9576 7.98776H5.34576V6.49324H4.03036C2.6534 6.51004 1.52271 5.40732 1.50592 4.02476C1.48913 2.6478 2.59182 1.51712 3.97439 1.50032H4.03036C5.40732 1.50032 6.53244 2.61981 6.53244 3.99678V7.67428C6.53244 9.04008 5.41852 10.154 4.05276 10.1708C3.39786 10.1708 2.77654 9.90208 2.31755 9.43748L1.25963 10.4954C1.9929 11.2343 2.98924 11.6541 4.03036 11.6653H4.08632C6.26376 11.6317 8.01576 9.86848 8.02692 7.69108V3.89603C7.97096 1.72982 6.20216 0.000209579 4.03596 0.000209579H4.03036ZM31.9995 11.4976V3.91868C31.9435 1.75248 30.1747 0.022866 28.0085 0.022866C25.8031 0.000475979 23.9951 1.77486 23.9783 3.98026C23.956 6.18564 25.7303 7.9936 27.9357 8.0104H29.3239V6.51588H28.0085C26.6315 6.53268 25.5008 5.43 25.484 4.04744C25.4672 2.67045 26.57 1.53977 27.9525 1.52298H28.0085C29.3855 1.52298 30.5106 2.64247 30.5106 4.01944V11.4864L31.9995 11.5032V11.4976ZM9.16808 8.0102H10.657V4.01364C10.657 2.63666 11.7765 1.51717 13.1535 1.51717C13.6069 1.51717 14.0323 1.64032 14.4017 1.85302L15.1518 0.554412C14.564 0.212969 13.8812 0.022656 13.1591 0.022656C10.9537 0.022656 9.16248 1.81384 9.16248 4.01924V8.0158L9.16808 8.0102Z" fill="black"/>
</svg>
