<svg width="247" height="31" viewBox="0 0 247 31" fill="none" xmlns="http://www.w3.org/2000/svg">
<g clip-path="url(#clip0_4002_71)">
<path d="M11.0383 17.0635C10.9999 16.5049 10.9249 15.9459 10.9316 15.3878C10.9414 14.5625 11.1221 13.7654 11.5208 13.0292C11.8115 12.4922 12.1886 12.019 12.648 11.6159C13.1025 11.2172 13.6 10.874 14.1544 10.6233C14.5764 10.4325 15.0139 10.2774 15.4803 10.2346C15.8077 10.2046 16.1388 10.1657 16.4651 10.1843C17.1037 10.2207 17.7163 10.3833 18.3019 10.6438C18.7521 10.8441 19.1751 11.0873 19.5675 11.3837C19.9278 11.6558 20.2443 11.9699 20.5144 12.3304C20.8397 12.7643 21.0924 13.2367 21.2349 13.7574C21.331 14.1088 21.4134 14.4687 21.4505 14.83C21.4983 15.2938 21.4961 15.7628 21.5125 16.2297C21.5243 16.5658 21.5187 16.9031 21.5435 17.2382C21.59 17.8672 21.6561 18.4937 21.8706 19.0954C22.0196 19.5135 22.2171 19.9061 22.4485 20.2938L21.9417 20.8514C21.8991 20.8983 21.8642 20.952 21.8237 21.0009L21.288 21.6465C20.9038 21.497 20.5272 21.3227 20.1332 21.2052C19.7556 21.0925 19.3627 21.0196 18.9715 20.9645C18.5485 20.9048 18.1204 20.8691 17.6933 20.8534C17.0399 20.8293 16.3854 20.8244 15.7314 20.8252C15.4304 20.8255 15.1292 20.8558 14.8285 20.878C14.6798 20.889 14.5321 20.9124 14.372 20.9185C14.2956 20.708 14.2256 20.5107 14.1678 20.31C14.0817 20.0104 14.0479 19.6913 13.803 19.457C13.731 19.388 13.6625 19.3104 13.6122 19.2253C13.4357 18.9267 13.2662 18.6241 13.0973 18.3211C12.9815 18.1134 12.8642 17.9268 12.6256 17.812C12.3389 17.6741 12.084 17.4722 11.813 17.3014C11.7251 17.246 11.6352 17.1831 11.5371 17.1561C11.3747 17.1114 11.205 17.093 11.0384 17.0635L11.0383 17.0635Z" fill="#E95A0F"/>
<path d="M41.002 20.8177C40.6686 20.8188 40.3353 20.82 39.9891 20.8075C39.9852 20.5733 39.9955 20.3529 40.0016 20.1324C40.0025 20.1001 39.9929 20.0505 39.9717 20.0391C39.9494 20.0272 39.9058 20.0484 39.8741 20.0613C39.8504 20.0711 39.8308 20.0907 39.7746 20.1305C39.768 20.0398 39.7562 19.9773 39.7603 19.9158C39.7738 19.7088 39.8216 19.4997 39.8033 19.2961C39.7752 18.9819 39.8421 18.8958 39.4615 18.9005C39.3563 18.9018 39.3612 18.8236 39.3691 18.7543C39.3829 18.633 39.4093 18.5128 39.4182 18.3912C39.4268 18.2728 39.42 18.1533 39.42 18.0384C39.3492 18.0257 39.3001 18.0148 39.2504 18.0083C39.128 17.9922 39.0826 17.9465 39.11 17.8078C39.1439 17.6355 39.1335 17.4549 39.1453 17.2781C39.1506 17.1997 39.1184 17.1554 39.0402 17.1477C38.9261 17.1366 38.8117 17.1187 38.6977 17.121C38.5685 17.1235 38.5538 17.0587 38.566 16.9561C38.5863 16.7852 38.6007 16.6136 38.618 16.4423L38.6485 16.1544C38.4848 16.1459 38.3395 16.1323 38.1943 16.1331C38.1023 16.1335 38.0509 16.0947 38.04 16.0124C38.0075 15.7663 37.9713 15.5201 37.9568 15.2728C37.9496 15.1497 37.9031 15.1162 37.7903 15.1143C37.533 15.11 37.2757 15.0981 37.0184 15.0882C36.8177 15.0805 36.7374 15.0124 36.7052 14.8166C36.6845 14.6911 36.6299 14.6026 36.4896 14.5915C36.275 14.5745 36.0596 14.5643 35.8462 14.5377C35.6431 14.5124 35.4418 14.4714 35.2404 14.4341C35.1012 14.4083 34.9631 14.3769 34.8245 14.3479C34.9496 13.7183 35.1882 13.1304 35.5531 12.6035C36.0536 11.8808 36.7019 11.3076 37.4688 10.8671C37.9081 10.6148 38.371 10.4206 38.8654 10.302C39.3271 10.1913 39.7973 10.1452 40.2688 10.1817C41.1929 10.2532 42.0385 10.5646 42.8308 11.0363C43.2706 11.2981 43.6691 11.6086 44.0026 11.9898C44.2275 12.247 44.424 12.5325 44.6047 12.8227C44.9033 13.3023 45.0717 13.8356 45.1761 14.3862C45.2255 14.6469 45.2541 14.9133 45.268 15.1783C45.2891 15.5783 45.289 15.9793 45.2861 16.3939L43.8571 16.943C43.6414 17.0269 43.4178 17.0904 43.254 17.2822C43.1229 17.4358 42.9586 17.5652 42.7953 17.6875C42.5209 17.8931 42.2842 18.1261 42.0999 18.4181C42.0075 18.5645 41.8809 18.7029 41.7396 18.8032C41.4248 19.0266 41.2573 19.3237 41.1958 19.6927L41.0021 20.8177L41.002 20.8177Z" fill="#ED6D7B"/>
<path d="M8.81881 25.3225C8.79935 25.8078 8.79574 26.2945 8.75629 26.7783C8.70919 27.3558 8.58183 27.9171 8.34619 28.4537C8.09666 29.0219 7.74483 29.5152 7.27897 29.9237C6.83328 30.3145 6.31971 30.5866 5.74499 30.7587C5.14366 30.9388 4.53034 30.9817 3.91493 30.9379C3.28365 30.893 2.69845 30.6823 2.1756 30.315C1.61496 29.9212 1.19028 29.412 0.842828 28.831C0.577022 28.3865 0.396381 27.9106 0.310523 27.404C0.24568 27.0215 0.246567 26.6356 0.299351 26.2468C0.372179 25.7106 0.549438 25.2126 0.797335 24.7361C1.11939 24.1171 1.55464 23.5889 2.13862 23.1966C2.57716 22.902 3.066 22.7116 3.59251 22.6355C3.83564 22.6003 4.08309 22.5903 4.32905 22.5791C4.65493 22.5642 4.98148 22.5637 5.30736 22.5486C5.54425 22.5377 5.7805 22.5132 6.0335 22.5027C6.0709 22.5512 6.0956 22.5904 6.1121 22.6328C6.24314 22.9691 6.40526 23.2875 6.62874 23.5753C6.8435 23.852 7.03987 24.1428 7.25802 24.4166C7.36666 24.553 7.49006 24.6899 7.6353 24.7829C7.84907 24.9199 8.08546 25.0241 8.31775 25.1304C8.47998 25.2047 8.65145 25.2592 8.81881 25.3225Z" fill="#EC663E"/>
<path d="M35.6284 4.4716C35.7337 3.65545 36.0117 2.91224 36.5361 2.26108C36.989 1.69855 37.5344 1.2597 38.191 0.954856C38.5976 0.766085 39.0219 0.634733 39.472 0.605104C39.7511 0.586751 40.0331 0.561704 40.3108 0.581429C40.771 0.614103 41.2158 0.7299 41.6387 0.918122C42.1762 1.1574 42.6489 1.48795 43.041 1.9237C43.4646 2.39452 43.7427 2.94366 43.9139 3.55013C44.0638 4.08078 44.0889 4.62446 44.0444 5.16392C43.9787 5.96072 43.7163 6.69809 43.2002 7.32802C42.9088 7.68369 42.5769 7.99976 42.1694 8.25113C42.0233 8.09715 41.892 7.9453 41.7664 7.78898C41.6094 7.59371 41.4626 7.39029 41.3012 7.1988C41.1745 7.04852 41.0365 6.90694 40.8958 6.76925C40.7963 6.67189 40.6903 6.57823 40.5755 6.49966C40.4359 6.40405 40.2827 6.32809 40.1376 6.23992C39.9031 6.0974 39.666 5.97466 39.3894 5.91351C39.0519 5.83889 38.7008 5.78789 38.4019 5.58886C38.362 5.56233 38.3067 5.55616 38.2573 5.54656C37.9005 5.47718 37.5517 5.39186 37.2325 5.20443C37.088 5.11964 36.9119 5.08935 36.7609 5.01336C36.6276 4.94628 36.5176 4.83216 36.3826 4.77054C36.137 4.65848 35.8804 4.56998 35.6284 4.47163V4.4716Z" fill="#EA580E"/>
<path d="M14.5534 8.5351C14.2911 8.37917 14.0124 8.24452 13.7704 8.06225C13.4134 7.79338 13.1042 7.47029 12.8636 7.09077C12.5511 6.59793 12.3201 6.0717 12.2564 5.48857C12.2206 5.16071 12.1889 4.82816 12.2045 4.50002C12.2274 4.02125 12.3406 3.55732 12.5256 3.10906C12.7701 2.51641 13.1424 2.01742 13.6225 1.59842C14.1221 1.16239 14.7082 0.88323 15.3511 0.711441C15.8839 0.56906 16.4279 0.541983 16.9692 0.583216C17.6291 0.633447 18.2323 0.875741 18.7729 1.25523C19.2496 1.58978 19.6514 1.9983 19.9621 2.50681C19.646 2.7344 19.3346 2.94895 19.017 3.15386C18.5431 3.45952 18.0671 3.7603 17.6853 4.18339C17.4414 4.45355 17.2084 4.73881 16.9331 4.97449C16.4657 5.37461 16.164 5.90177 15.795 6.37413C15.4661 6.7952 15.2222 7.28265 14.9535 7.748C14.8065 8.00267 14.6859 8.27226 14.5533 8.53513L14.5534 8.5351Z" fill="#F8AB00"/>
<path d="M29.3892 30.782C29.1847 30.8272 28.9821 30.8943 28.7752 30.9127C28.4558 30.941 28.133 30.9522 27.8126 30.9416C27.2763 30.9238 26.759 30.8126 26.2646 30.5945C25.8466 30.4102 25.4715 30.1701 25.1398 29.8583C24.4741 29.2326 23.974 28.5081 23.767 27.6105C23.727 27.4367 23.7128 27.255 23.7051 27.0762C23.6887 26.6942 23.699 26.3105 23.6708 25.9296C23.6454 25.5867 23.5832 25.2464 23.5486 24.8925C23.5917 24.8546 23.6355 24.8356 23.6533 24.8028C23.7844 24.5616 23.9899 24.3869 24.1824 24.1984C24.3453 24.0388 24.4787 23.8484 24.648 23.6966C24.8419 23.5228 24.9768 23.3236 25.0462 23.0762L25.283 22.2534C25.5052 22.3024 25.7261 22.3582 25.9499 22.3984C26.1757 22.439 26.4038 22.4695 26.632 22.4943C26.8663 22.5197 27.102 22.5329 27.3497 22.5658C27.3808 23.0072 27.3932 23.4346 27.4196 23.8611C27.4384 24.1641 27.4583 24.4688 27.5093 24.7676C27.5763 25.1607 27.6675 25.5502 27.7609 25.9383C27.8579 26.3417 27.8725 26.7593 28.0496 27.1505C28.3312 27.7725 28.5566 28.4193 28.8336 29.0435C29.0325 29.4918 29.1799 29.9481 29.2516 30.4321C29.2695 30.5528 29.3419 30.6656 29.3892 30.782L29.3892 30.782Z" fill="#EA5227"/>
<path d="M29.4004 30.7815C29.3419 30.6656 29.2695 30.5528 29.2516 30.4321C29.1799 29.9481 29.0325 29.4918 28.8336 29.0435C28.5567 28.4193 28.3312 27.7725 28.0496 27.1505C27.8725 26.7593 27.8579 26.3417 27.7609 25.9382C27.6676 25.5501 27.5764 25.1606 27.5093 24.7675C27.4583 24.4688 27.4384 24.164 27.4196 23.8611C27.3933 23.4345 27.3808 23.0072 27.3623 22.5677C27.5998 22.5627 27.8376 22.581 28.0749 22.5755L29.2356 22.5371C29.2607 22.6399 29.2701 22.7302 29.2877 22.819L29.5276 23.9905C29.5526 24.1032 29.5923 24.2216 29.6578 24.3151C29.8564 24.5987 30.0683 24.8734 30.2803 25.1475C30.3972 25.2987 30.5101 25.4576 30.6507 25.5852C30.8903 25.8027 31.1515 25.9966 31.4012 26.2034C31.7342 26.4791 32.0791 26.7329 32.5143 26.8303C32.4684 27.1349 32.448 27.4459 32.3709 27.7426C32.238 28.2539 32.0277 28.7359 31.7218 29.1751C31.36 29.6947 30.9155 30.126 30.3461 30.4111C30.0478 30.5604 29.7239 30.6593 29.4004 30.7815L29.4004 30.7815Z" fill="#EA5330"/>
<path d="M55.1435 24.25C55.2876 24.4913 55.4612 24.7204 55.5687 24.9767C55.7163 25.3288 55.8388 25.6957 55.9255 26.0669C56.0073 26.4168 56.0149 26.7776 55.9806 27.1428C55.9421 27.5536 55.8519 27.9457 55.6937 28.3234C55.5336 28.7056 55.3201 29.056 55.052 29.377C54.6599 29.8462 54.1866 30.2125 53.6435 30.4877C53.2453 30.6894 52.8236 30.8388 52.3754 30.8881C52.0899 30.9194 51.8006 30.9528 51.5151 30.94C50.8422 30.9098 50.2053 30.7358 49.6263 30.3841C49.4573 30.2815 49.2957 30.1669 49.1348 30.0455C49.2822 29.8925 49.422 29.7478 49.5698 29.6118L50.5976 28.6788C50.6246 28.6543 50.6562 28.6347 50.683 28.6101C50.8753 28.4332 51.0923 28.2754 51.2528 28.0736C51.4989 27.764 51.809 27.5348 52.1162 27.2974C52.2355 27.2052 52.3673 27.1232 52.4675 27.0133C52.6302 26.8349 52.7678 26.6343 52.9227 26.4486C53.112 26.2219 53.3033 25.9965 53.5033 25.7792C53.616 25.6569 53.7527 25.5564 53.8706 25.4384C54.281 25.0276 54.6682 24.5928 55.1435 24.2501V24.25Z" fill="#F8AA05"/>
<path d="M34.8225 14.3594C34.9629 14.377 35.101 14.4084 35.2402 14.4342C35.4417 14.4716 35.6429 14.5125 35.8461 14.5379C36.0594 14.5645 36.2749 14.5746 36.4894 14.5917C36.6298 14.6028 36.6843 14.6913 36.705 14.8168C36.7373 15.0125 36.8175 15.0807 37.0183 15.0884L37.7902 15.1145C37.903 15.1164 37.9494 15.1499 37.9567 15.2729C37.9711 15.5203 38.0074 15.7665 38.0398 16.0125C38.0507 16.0948 38.1021 16.1337 38.1942 16.1332C38.3394 16.1325 38.4847 16.1461 38.6484 16.1546L38.6178 16.4425L38.5659 16.9562C38.5537 17.0588 38.5683 17.1237 38.6976 17.1211C38.8115 17.1189 38.926 17.1367 39.04 17.1479C39.1183 17.1556 39.1505 17.1998 39.1452 17.2783C39.1333 17.4551 39.1437 17.6357 39.1098 17.8079C39.0825 17.9467 39.1279 17.9924 39.2502 18.0085C39.2999 18.015 39.3491 18.0259 39.4199 18.0386C39.4199 18.1535 39.4266 18.273 39.418 18.3914C39.4092 18.5129 39.3828 18.6331 39.3689 18.7544C39.361 18.8238 39.3562 18.902 39.4613 18.9007C39.8419 18.8959 39.775 18.9821 39.8032 19.2962C39.8214 19.4999 39.7736 19.709 39.7601 19.9159C39.7561 19.9774 39.7679 20.0399 39.7745 20.1307C39.8307 20.0908 39.8503 20.0712 39.874 20.0615C39.9056 20.0486 39.9492 20.0274 39.9715 20.0393C39.9928 20.0506 40.0024 20.1002 40.0015 20.1326L39.9761 20.8058C39.6652 20.8283 39.3537 20.8304 39.0436 20.8517L37.8251 20.9459C37.795 20.8634 37.7608 20.7931 37.7615 20.7232C37.7638 20.4681 37.6376 20.2682 37.5094 20.0616C37.4021 19.8885 37.2665 19.7035 37.2466 19.5132C37.217 19.2282 37.0882 19.0761 36.8339 18.9926C36.8035 18.9826 36.774 18.9694 36.7448 18.9562C36.5375 18.8621 36.3137 18.7938 36.2164 18.5519C36.1913 18.4897 36.115 18.4484 36.065 18.3949C35.9975 18.3227 35.9371 18.2434 35.8652 18.1758C35.7918 18.1068 35.7168 18.0292 35.6271 17.9899C35.4941 17.9317 35.3478 17.9025 35.2064 17.8638L34.7688 17.7498C34.7764 17.3961 34.8165 17.0393 34.7838 16.6892C34.7381 16.2014 34.6879 15.7146 34.713 15.2256C34.7276 14.9395 34.7834 14.6556 34.8224 14.3594L34.8225 14.3594Z" fill="#ED6876"/>
<path d="M14.5586 8.5439C14.6861 8.27236 14.8067 8.00277 14.9537 7.7481C15.2224 7.28274 15.4663 6.79533 15.7952 6.37423C16.1642 5.90187 16.4659 5.37471 16.9333 4.97459C17.2086 4.73891 17.4416 4.45365 17.6855 4.18349C18.0673 3.7604 18.5433 3.45962 19.0172 3.15396C19.3348 2.94905 19.6461 2.7345 19.9665 2.51514C20.291 2.97449 20.5131 3.48695 20.5912 4.04366C20.653 4.4844 20.6532 4.93363 20.6675 5.39183C20.5357 5.43627 20.4101 5.45311 20.2999 5.5031C20.1217 5.58397 19.9619 5.70921 19.7795 5.77584C19.2288 5.97696 18.8423 6.38896 18.4508 6.78496C18.2329 7.00539 18.0763 7.28631 17.8995 7.54501C17.7766 7.72492 17.6405 7.90266 17.5569 8.10065C17.4391 8.37984 17.3645 8.67687 17.2715 8.96626C16.9297 8.96772 16.5856 8.99444 16.2465 8.96492C15.6849 8.91601 15.1313 8.8122 14.6177 8.56192C14.602 8.55424 14.5818 8.55547 14.5586 8.54387L14.5586 8.5439Z" fill="#F6A200"/>
<path d="M55.1421 24.2403C54.6682 24.5927 54.281 25.0275 53.8706 25.4384C53.7527 25.5564 53.616 25.6568 53.5033 25.7792C53.3033 25.9965 53.112 26.2219 52.9227 26.4486C52.7678 26.6343 52.6302 26.8348 52.4675 27.0132C52.3673 27.1231 52.2355 27.2051 52.1162 27.2974C51.809 27.5348 51.4989 27.764 51.2528 28.0736C51.0923 28.2754 50.8753 28.4332 50.683 28.61C50.6562 28.6347 50.6246 28.6543 50.5976 28.6788L49.5698 29.6118C49.422 29.7478 49.2822 29.8925 49.1302 30.0371C48.5369 29.5648 48.0917 28.9826 47.7822 28.2926C47.8793 28.2437 47.9795 28.2211 48.0545 28.1654C48.2956 27.986 48.6199 27.9347 48.8113 27.6794C48.8372 27.6449 48.8846 27.6253 48.924 27.6018C49.4196 27.306 49.9314 27.0332 50.4055 26.7068C50.6912 26.5102 50.9222 26.2341 51.1702 25.9864C51.2761 25.8806 51.3763 25.7644 51.4557 25.6385C51.7963 25.0986 52.133 24.5563 52.5752 24.0893C52.9141 23.7314 53.0537 23.2793 53.2001 22.8293C53.6395 22.9444 54.0268 23.1621 54.382 23.4351C54.6754 23.6606 54.9304 23.9257 55.1421 24.2403L55.1421 24.2403Z" fill="#F7A80D"/>
<path d="M41.0147 20.8196C41.0666 20.4428 41.133 20.0681 41.1956 19.6927C41.2571 19.3238 41.4246 19.0267 41.7394 18.8033C41.8807 18.7029 42.0074 18.5646 42.0997 18.4181C42.284 18.1262 42.5207 17.8932 42.7951 17.6876C42.9583 17.5652 43.1227 17.4358 43.2538 17.2823C43.4176 17.0905 43.6412 17.027 43.8569 16.943L45.2841 16.4067C45.3049 16.7318 45.3023 17.0593 45.3296 17.3844C45.3787 17.9702 45.4425 18.555 45.6552 19.1115C45.66 19.1238 45.6582 19.1385 45.6547 19.1707C45.4622 19.2841 45.2703 19.372 45.0881 19.4764C44.9791 19.5389 44.8732 19.6162 44.7868 19.7064C44.6202 19.8804 44.4801 20.0801 44.3076 20.2476C44.0554 20.4923 43.953 20.815 43.8036 21.1141C43.798 21.1253 43.8016 21.1411 43.8009 21.1547C43.5656 21.1075 43.3314 21.0537 43.0947 21.015C42.8261 20.971 42.5561 20.9304 42.2851 20.9066C41.8667 20.87 41.4468 20.849 41.0146 20.8196L41.0147 20.8196Z" fill="#EF7A72"/>
<path d="M26.5584 21.0371C25.9946 20.8871 25.483 20.627 25.0141 20.2894C24.7868 20.1257 24.5858 19.9263 24.3777 19.7306C24.46 19.6345 24.5319 19.5448 24.616 19.4683C24.8125 19.2894 24.9288 19.0591 25.0541 18.8331C25.1908 18.5863 25.3409 18.3463 25.469 18.0953C25.5422 17.9518 25.6227 17.7933 25.6267 17.6396C25.6301 17.512 25.6321 17.3946 25.6982 17.2901C25.9344 16.9164 26.1274 16.5212 26.2187 16.0911C26.2772 15.8154 26.4373 15.5761 26.4352 15.2729C26.4334 15.0236 26.5541 14.7732 26.6218 14.5236C26.7108 14.1949 26.8261 13.8708 26.8849 13.5369C26.9737 13.0333 27.0272 12.5233 27.0886 12.0152L27.2238 10.7588C27.4094 10.7667 27.5949 10.7746 27.7932 10.7962C27.7968 10.8911 27.7819 10.972 27.7795 11.0533L27.748 12.2218C27.7314 12.5387 27.6907 12.8544 27.6625 13.1708L27.5559 14.3909C27.5299 14.6708 27.5066 14.9515 27.4649 15.2292C27.4383 15.4066 27.3412 15.5762 27.4334 15.761C27.443 15.7804 27.4216 15.8129 27.421 15.8396C27.4148 16.1116 27.2549 16.3725 27.3601 16.6528C27.363 16.6605 27.3592 16.6709 27.3576 16.6798L27.1234 17.9474C27.0893 18.1249 27.042 18.2998 27.0024 18.4763C26.9608 18.6616 26.9303 18.85 26.8789 19.0326C26.7791 19.3873 26.5834 19.7266 26.7229 20.1154C26.7331 20.1438 26.7294 20.1799 26.7234 20.2107L26.5584 21.0371H26.5584Z" fill="#E94E3B"/>
<path d="M26.5679 21.0422C26.6135 20.7618 26.6693 20.4866 26.7232 20.2109C26.7292 20.18 26.7329 20.1439 26.7227 20.1155C26.5833 19.7268 26.7789 19.3874 26.8787 19.0327C26.9301 18.8501 26.9606 18.6618 27.0022 18.4764C27.0418 18.3 27.0891 18.125 27.1232 17.9475L27.3574 16.68C27.359 16.671 27.3628 16.6606 27.3599 16.653C27.2547 16.3727 27.4146 16.1118 27.4208 15.8397C27.4214 15.8131 27.4429 15.7805 27.4332 15.7611C27.3411 15.5763 27.4381 15.4067 27.4647 15.2294C27.5064 14.9516 27.5297 14.671 27.5557 14.3911L27.6623 13.1709C27.6905 12.8545 27.7313 12.5389 27.7478 12.222C27.7681 11.833 27.7678 11.4429 27.7793 11.0534C27.7817 10.9722 27.7967 10.8913 27.8058 10.7983C27.9543 10.7851 28.1028 10.7838 28.2642 10.7961C28.3259 11.2103 28.3157 11.6118 28.3093 12.0143C28.3049 12.2904 28.3492 12.5669 28.3583 12.8436C28.3676 13.1244 28.3573 13.4058 28.3615 13.6868C28.3638 13.8435 28.3834 14 28.3854 14.1567C28.3869 14.2744 28.3724 14.3922 28.3659 14.51C28.3639 14.5463 28.3621 14.583 28.3651 14.6191L28.4353 15.5629L28.388 16.5586L28.3351 17.8943C28.33 18.1166 28.3626 18.3398 28.3576 18.5621C28.3501 18.8933 28.3222 19.2241 28.308 19.5553C28.3052 19.6216 28.3052 19.7003 28.3374 19.7534C28.4574 19.9515 28.4611 20.1708 28.4687 20.3872C28.4788 20.6767 28.4711 20.9668 28.4711 21.2566C28.1539 21.328 27.8379 21.2755 27.5256 21.2315C27.2072 21.1867 26.8933 21.1099 26.5679 21.0421V21.0422Z" fill="#EA5043"/>
<path d="M11.0362 17.0762C11.2049 17.0931 11.3747 17.1115 11.5371 17.1562C11.6352 17.1832 11.725 17.2461 11.813 17.3015C12.0839 17.4723 12.3389 17.6742 12.6255 17.8121C12.8641 17.9269 12.9815 18.1135 13.0973 18.3212L13.6121 19.2254C13.6624 19.3105 13.7309 19.3881 13.8029 19.4571C14.0478 19.6914 14.0816 20.0105 14.1678 20.3101C14.2255 20.5108 14.2955 20.7081 14.3603 20.9171C13.5433 21 12.7255 21.0703 11.9322 21.3347C11.8994 21.2716 11.8825 21.2151 11.8555 21.1637C11.7336 20.9319 11.6697 20.6651 11.4412 20.4971C11.3716 20.4459 11.2998 20.3925 11.2459 20.3265C11.0142 20.0431 10.7738 19.7703 10.4482 19.5866C10.5709 19.2717 10.706 18.9609 10.8128 18.6408C10.935 18.2747 10.9992 17.8952 11.0068 17.5075C11.0095 17.3678 11.0247 17.2283 11.0362 17.0762H11.0362Z" fill="#EB5D19"/>
<path d="M27.2115 10.7571C27.179 11.1778 27.1389 11.5972 27.0884 12.0154C27.0271 12.5235 26.9735 13.0334 26.8848 13.5371C26.8259 13.871 26.7107 14.1951 26.6216 14.5238C26.554 14.7734 26.4333 15.0237 26.4351 15.2731C26.4372 15.5763 26.277 15.8156 26.2185 16.0913C26.1273 16.5214 25.9342 16.9166 25.6981 17.2903C25.632 17.3948 25.6299 17.5122 25.6266 17.6398C25.6226 17.7934 25.5421 17.952 25.4688 18.0955C25.3407 18.3465 25.1907 18.5865 25.0539 18.8333C24.9287 19.0593 24.8123 19.2896 24.6159 19.4684C24.5318 19.545 24.4599 19.6347 24.3738 19.7223C24.0356 19.4317 23.7896 19.0737 23.5615 18.7007C23.3505 18.3559 23.1932 17.9885 23.0725 17.5932C23.4413 17.4042 23.7898 17.2125 24.0514 16.8987C24.0713 16.8749 24.105 16.8627 24.1266 16.8398C24.2659 16.6916 24.4181 16.5523 24.5384 16.39C24.7086 16.1603 24.8394 15.9013 25.0154 15.6765C25.2432 15.3852 25.394 15.0553 25.5705 14.731C25.6938 14.7138 25.757 14.6429 25.7954 14.542C25.8358 14.4359 25.8687 14.3254 25.9232 14.2267C26.0451 14.0059 26.1905 13.7971 26.3032 13.5721C26.3962 13.3866 26.456 13.1849 26.5306 12.9904C26.6894 12.5766 26.7324 12.1331 26.8777 11.7126C26.9804 11.4155 26.9647 11.0784 27.0019 10.7592L27.2115 10.7572V10.7571Z" fill="#E94C32"/>
<path d="M53.1905 22.8245C53.0536 23.2793 52.9141 23.7314 52.5752 24.0893C52.1329 24.5564 51.7962 25.0986 51.4557 25.6385C51.3763 25.7644 51.276 25.8806 51.1701 25.9864C50.9221 26.2341 50.6911 26.5102 50.4054 26.7068C49.9313 27.0332 49.4195 27.306 48.9239 27.6018C48.8846 27.6253 48.8371 27.6449 48.8112 27.6794C48.6198 27.9347 48.2956 27.986 48.0545 28.1654C47.9795 28.2211 47.8793 28.2437 47.7807 28.2828C47.6861 28.0134 47.589 27.7456 47.5213 27.4707C47.4788 27.2983 47.4804 27.1153 47.4751 26.9244C47.5281 26.903 47.5686 26.8954 47.6084 26.8852C48.0471 26.7721 48.4815 26.6649 48.8232 26.3276C49.0852 26.069 49.3879 25.8511 49.6697 25.6117C49.8401 25.4669 50.0307 25.3359 50.1674 25.1638C50.5781 24.6467 50.9679 24.1135 51.3626 23.5842C51.4353 23.4866 51.5152 23.3849 51.552 23.2723C51.6263 23.0443 51.6732 22.8076 51.7315 22.5745C52.2274 22.5821 52.711 22.6617 53.1905 22.8245Z" fill="#F7A617"/>
<path d="M32.5162 26.8185C32.0789 26.7327 31.734 26.479 31.401 26.2032C31.1514 25.9964 30.8901 25.8025 30.6505 25.585C30.51 25.4574 30.3971 25.2985 30.2801 25.1473C30.0681 24.8732 29.8562 24.5985 29.6576 24.3149C29.5921 24.2214 29.5525 24.1031 29.5274 23.9903C29.4409 23.6013 29.3653 23.2098 29.2876 22.8188C29.2699 22.73 29.2606 22.6397 29.2473 22.5388C29.6696 22.4787 30.0921 22.4299 30.5339 22.3845C30.6085 22.541 30.6692 22.6924 30.7177 22.8475C30.7981 23.1048 30.9332 23.3192 31.1345 23.5072C31.3301 23.69 31.5033 23.8998 31.6653 24.1135C31.9289 24.4613 32.3032 24.6364 32.6884 24.8008C32.6594 25.005 32.6212 25.2083 32.6034 25.4134C32.5769 25.7196 32.5648 26.0271 32.5465 26.334L32.5162 26.8185H32.5162Z" fill="#EA553A"/>
<path d="M32.2451 19.3143C32.134 19.4546 32.032 19.6032 31.9103 19.7338C31.5543 20.1161 31.1437 20.4319 30.6655 20.6813C30.5777 20.5248 30.5087 20.3717 30.4385 20.2081C30.3464 19.8554 30.265 19.5104 30.1623 19.1718C30.0347 18.7513 29.8684 18.3436 29.8476 17.8944C29.8389 17.7059 29.8123 17.5025 29.6504 17.3555C29.6214 17.3291 29.6146 17.2718 29.6098 17.2274L29.4964 16.1321C29.481 15.9882 29.4858 15.835 29.4351 15.7035C29.3347 15.4428 29.3091 15.1753 29.3051 14.9034C29.3027 14.7358 29.3347 14.5672 29.3268 14.4002C29.3082 14.0084 29.278 13.617 29.2464 13.226C29.2282 13.0004 29.1923 12.7762 29.1753 12.5506C29.1626 12.3822 29.1674 12.2126 29.1725 12.051C29.199 12.211 29.2023 12.3672 29.2398 12.5149C29.2954 12.734 29.3846 12.9446 29.4428 13.1632C29.5322 13.4987 29.4857 13.8551 29.6294 14.188C29.7489 14.465 29.8065 14.7678 29.8992 15.0568C29.9609 15.2494 30.0701 15.4332 30.0966 15.6291C30.1276 15.8589 30.2657 16.0125 30.3842 16.1975L30.4404 16.4876C30.4878 16.7404 30.5277 16.9892 30.6759 17.2173C30.8531 17.4902 30.9905 17.7883 31.1456 18.0753C31.257 18.2816 31.3174 18.5163 31.5039 18.6806L32.182 19.2913C32.1975 19.3051 32.2238 19.307 32.2451 19.3144L32.2451 19.3143Z" fill="#EA5453"/>
<path d="M35.6263 4.48345C35.8803 4.56981 36.1369 4.65832 36.3825 4.77038C36.5175 4.832 36.6275 4.94612 36.7608 5.0132C36.9118 5.08919 37.088 5.11947 37.2324 5.20427C37.5516 5.39167 37.9004 5.47702 38.2573 5.5464C38.3066 5.556 38.362 5.5622 38.4018 5.5887C38.7007 5.78773 39.0518 5.83873 39.3893 5.91335C39.6659 5.97453 39.903 6.09724 40.1375 6.23975C40.2826 6.32793 40.4358 6.40389 40.5755 6.4995C40.6902 6.57807 40.7962 6.67175 40.8957 6.76909C41.0364 6.9068 41.1745 7.04839 41.3011 7.19864C41.4625 7.39013 41.6094 7.59355 41.7663 7.78882C41.8919 7.94514 42.0232 8.09698 42.1606 8.25484C41.8832 8.41412 41.6042 8.58415 41.309 8.71964C41.0957 8.81756 40.8609 8.86954 40.6245 8.93003C40.5447 8.73558 40.4762 8.55307 40.4074 8.37061C40.3851 8.31162 40.3729 8.24578 40.3381 8.19514C40.212 8.01134 40.0689 7.83853 39.9497 7.65067C39.7647 7.35913 39.5244 7.13135 39.2272 6.95451C38.9678 6.8002 38.718 6.63014 38.4608 6.47204C38.2824 6.36238 38.1031 6.2524 37.9158 6.15915C37.7738 6.08846 37.6079 6.06215 37.471 5.9844C36.9945 5.71382 36.4971 5.4937 35.9731 5.33239C35.851 5.2948 35.7249 5.27019 35.6006 5.23961L35.6263 4.4834V4.48345Z" fill="#EA5B15"/>
<path d="M30.4395 20.2187L30.6554 20.6821C30.2385 20.9365 29.7772 21.0937 29.2919 21.1758C29.0296 21.2201 28.7618 21.2333 28.4838 21.2586C28.4711 20.9668 28.4788 20.6767 28.4687 20.3872C28.4611 20.1708 28.4574 19.9515 28.3374 19.7534C28.3053 19.7003 28.3052 19.6216 28.308 19.5554L28.3576 18.5621C28.3626 18.3398 28.33 18.1166 28.3351 17.8943C28.3452 17.4489 28.3698 17.0038 28.388 16.5586C28.4014 16.2294 28.4141 15.9002 28.4429 15.5691C28.5973 15.8486 28.7376 16.1293 28.8733 16.4121C28.9044 16.4769 28.9451 16.5517 28.9382 16.6175C28.8956 17.024 29.1012 17.3538 29.2975 17.669C29.575 18.1146 29.7527 18.5892 29.8612 19.0946C29.9245 19.3897 29.9923 19.6815 30.1927 19.9221L30.4395 20.2187Z" fill="#EA504B"/>
<path d="M51.7246 22.565C51.6734 22.8077 51.6264 23.0444 51.5521 23.2724C51.5154 23.3849 51.4355 23.4866 51.3627 23.5842L50.1676 25.1639C50.0309 25.336 49.8402 25.467 49.6698 25.6118C49.3881 25.8511 49.0854 26.0691 48.8233 26.3277C48.4816 26.665 48.0472 26.7722 47.6086 26.8852C47.5688 26.8955 47.5283 26.9031 47.4771 26.9123C47.4464 26.445 47.4267 25.9775 47.4194 25.4979C47.4545 25.4832 47.48 25.4862 47.4995 25.4769C47.7932 25.3378 48.0761 25.1735 48.4029 25.1128C48.4497 25.1041 48.4946 25.07 48.5341 25.0397L49.28 24.4605C49.4184 24.3507 49.5909 24.2577 49.6787 24.1153C49.9916 23.6077 50.2987 23.093 50.428 22.5002L51.4273 22.5499C51.5239 22.5545 51.6208 22.5538 51.7246 22.565Z" fill="#F6A320"/>
<path d="M8.82826 25.3161C8.65156 25.2592 8.48006 25.2048 8.31783 25.1305C8.08554 25.0242 7.84915 24.92 7.63538 24.783C7.49014 24.6899 7.36674 24.5531 7.2581 24.4167C7.03992 24.1428 6.84356 23.852 6.62882 23.5754C6.40535 23.2875 6.24322 22.9692 6.11218 22.6328C6.09568 22.5905 6.07098 22.5513 6.04614 22.5016C6.23577 22.4578 6.42863 22.4187 6.62297 22.389C7.1456 22.3091 7.63299 22.1286 8.11271 21.9001C8.13203 21.9245 8.13735 21.9428 8.14853 21.9564L8.64535 22.5571C8.76012 22.6926 8.86879 22.8367 9.00192 22.9525C9.15911 23.0892 9.33972 23.1996 9.51019 23.3214C9.26243 23.768 9.05492 24.2316 8.93644 24.729C8.89103 24.9197 8.86985 25.116 8.82823 25.3162L8.82826 25.3161Z" fill="#EC6333"/>
<path d="M17.2842 8.96817C17.3644 8.67688 17.439 8.37983 17.5568 8.10064C17.6403 7.90265 17.7765 7.7249 17.8994 7.54499C18.0761 7.2863 18.2328 7.00538 18.4507 6.78495C18.8421 6.38897 19.2287 5.97694 19.7793 5.77583C19.9618 5.70919 20.1215 5.58396 20.2998 5.50308C20.41 5.4531 20.5355 5.43625 20.6653 5.40454C20.7193 5.91363 20.7554 6.4237 20.8956 6.93221C20.4672 7.14979 20.0957 7.42854 19.774 7.75511C19.4852 8.04818 19.2442 8.38913 18.9974 8.72009C18.9076 8.84046 18.8619 8.993 18.796 9.13085C18.3025 9.02147 17.8045 8.95259 17.2842 8.96814V8.96817Z" fill="#F49700"/>
<path d="M30.4384 20.208C30.3573 20.1197 30.275 20.0208 30.1927 19.922C29.9923 19.6813 29.9246 19.3895 29.8612 19.0944C29.7527 18.589 29.575 18.1144 29.2976 17.6689C29.1013 17.3536 28.8957 17.0239 28.9382 16.6173C28.9451 16.5516 28.9045 16.4767 28.8734 16.4119L28.4511 15.561L28.3651 14.6189C28.3621 14.5828 28.364 14.5462 28.366 14.5099C28.3724 14.3921 28.3869 14.2742 28.3854 14.1566C28.3834 13.9998 28.3639 13.8434 28.3615 13.6866L28.3583 12.8435C28.3492 12.5668 28.3049 12.2903 28.3093 12.0142C28.3157 11.6116 28.3259 11.2101 28.2771 10.7978C28.5368 10.7757 28.7967 10.7654 29.0688 10.7683C29.1089 11.2021 29.1366 11.6227 29.1643 12.0434C29.1673 12.2124 29.1626 12.3821 29.1752 12.5505C29.1922 12.7761 29.2281 13.0003 29.2463 13.2259L29.3267 14.4C29.3346 14.5671 29.3026 14.7357 29.305 14.9033C29.309 15.1752 29.3346 15.4427 29.435 15.7033C29.4856 15.8348 29.4809 15.988 29.4963 16.1319L29.6097 17.2273C29.6145 17.2716 29.6213 17.329 29.6503 17.3554C29.8122 17.5023 29.8388 17.7058 29.8475 17.8943C29.8683 18.3435 30.0346 18.7511 30.1622 19.1717C30.2648 19.5103 30.3463 19.8552 30.4384 20.208H30.4384Z" fill="#EA544C"/>
<path d="M33.4014 15.5825C33.4362 16.278 33.355 16.9586 33.1195 17.6293C32.8812 17.4954 32.6156 17.3904 32.4444 17.2016C32.2381 16.9742 32.0582 16.7231 31.8435 16.4963C31.6079 16.2474 31.3796 15.977 31.259 15.6427C31.244 15.6012 31.2121 15.5657 31.187 15.5175C31.0594 15.2638 30.9734 15.0088 30.9664 14.7195C30.9432 14.5234 30.9327 14.3369 30.894 14.1565C30.8326 13.8697 30.7381 13.5942 30.6972 13.2977C30.6275 12.7924 30.4974 12.2961 30.549 11.7792C30.5556 11.7126 30.5442 11.6435 30.5357 11.5762L30.4119 10.6217C30.4874 10.6113 30.5628 10.6009 30.6499 10.6034C30.6984 10.8443 30.7317 11.073 30.7732 11.3002C30.8234 11.5755 30.8741 11.8512 30.9377 12.1237C30.9664 12.2466 31.0473 12.3588 31.0688 12.4821C31.1185 12.7667 31.1999 13.0377 31.3259 13.2988C31.4066 13.4663 31.4578 13.6475 31.5337 13.8176C31.6131 13.9958 31.7073 14.1675 31.7929 14.3431C31.8972 14.5572 32.0054 14.755 32.2392 14.8765C32.4479 14.9849 32.6194 15.1611 32.8209 15.2859C33.0049 15.3998 33.2072 15.4848 33.4013 15.5825L33.4014 15.5825Z" fill="#EC5C61"/>
<path d="M31.6248 10.4037C32.1344 10.2705 32.629 10.0962 33.1213 9.8833C33.2106 9.9757 33.2791 10.0683 33.363 10.1442C33.4277 10.2028 33.5141 10.2833 33.5866 10.2793C33.798 10.2675 33.9294 10.353 34.0665 10.5047C34.2198 10.6742 34.4198 10.8024 34.5994 10.9487C34.4575 11.146 34.3094 11.3393 34.1746 11.5414C33.7951 12.1103 33.5373 12.728 33.4322 13.4048C33.4171 13.5019 33.3967 13.5981 33.3666 13.7046C32.9713 13.5285 32.6344 13.2942 32.4592 12.887C32.429 12.8169 32.3872 12.7517 32.3492 12.6852C32.3022 12.6031 32.2502 12.5236 32.2066 12.4398C32.1628 12.3558 32.1256 12.2684 32.0875 12.1816C32.044 12.0823 31.9903 11.9851 31.9636 11.8813C31.9287 11.7461 31.946 11.5913 31.888 11.4695C31.7264 11.1294 31.681 10.7664 31.6248 10.4037H31.6248Z" fill="#ED676F"/>
<path d="M34.7673 17.7617C34.9149 17.7877 35.0612 17.824 35.2066 17.8638C35.348 17.9025 35.4943 17.9317 35.6273 17.9899C35.717 18.0292 35.792 18.1068 35.8654 18.1758C35.9373 18.2434 35.9977 18.3227 36.0652 18.3949C36.1152 18.4484 36.1915 18.4897 36.2166 18.5519C36.3139 18.7938 36.5377 18.8621 36.745 18.9562C36.7742 18.9694 36.8036 18.9826 36.8341 18.9926C37.0884 19.0761 37.2172 19.2282 37.2468 19.5132C37.2667 19.7035 37.4023 19.8885 37.5096 20.0616C37.6378 20.2682 37.764 20.4681 37.7617 20.7232C37.761 20.7931 37.7952 20.8634 37.8136 20.9441C37.263 21.0142 36.7104 21.062 36.1614 21.1935L35.8399 20.557C35.8093 20.4975 35.7699 20.4375 35.7205 20.393C35.5168 20.2094 35.3085 20.0307 35.1003 19.852L34.6203 19.4495C34.5434 19.388 34.4558 19.3393 34.373 19.2849L34.6949 18.2373C34.7367 18.0877 34.7431 17.9285 34.7673 17.7617Z" fill="#ED656E"/>
<path d="M31.6127 10.4036C31.681 10.7664 31.7264 11.1294 31.888 11.4695C31.9459 11.5914 31.9287 11.7461 31.9636 11.8814C31.9903 11.9852 32.044 12.0823 32.0875 12.1817C32.1255 12.2685 32.1628 12.3559 32.2066 12.4399C32.2502 12.5237 32.3022 12.6031 32.3491 12.6852C32.3872 12.7518 32.429 12.817 32.4592 12.887C32.6344 13.2942 32.9713 13.5285 33.3641 13.7158C33.3659 13.8563 33.3502 13.9957 33.352 14.1348L33.3793 15.1805C33.3835 15.3063 33.3964 15.4318 33.4034 15.5701C33.2072 15.4849 33.005 15.3999 32.821 15.286C32.6195 15.1612 32.448 14.985 32.2393 14.8766C32.0055 14.7551 31.8973 14.5573 31.793 14.3433C31.7074 14.1677 31.6132 13.9959 31.5338 13.8177C31.4579 13.6476 31.4067 13.4664 31.3259 13.2989C31.2 13.0378 31.1187 12.7669 31.0689 12.4822C31.0474 12.359 30.9665 12.2468 30.9378 12.1238C30.8742 11.8513 30.8235 11.5757 30.7733 11.3003C30.7318 11.0731 30.6984 10.8444 30.6614 10.6053C30.9483 10.5378 31.2353 10.4815 31.5223 10.4247C31.5488 10.4195 31.5746 10.4106 31.6128 10.4036L31.6127 10.4036Z" fill="#EC6168"/>
<path d="M25.5603 14.7319C25.3939 15.0552 25.2432 15.3851 25.0153 15.6764C24.8394 15.9013 24.7085 16.1602 24.5383 16.3899C24.418 16.5522 24.2658 16.6915 24.1265 16.8398C24.105 16.8627 24.0712 16.8748 24.0514 16.8987C23.7897 17.2124 23.4412 17.4042 23.0712 17.5825C22.9542 17.2839 22.8787 16.9748 22.8714 16.6524L22.8572 15.2933C23.0635 15.2139 23.2578 15.1507 23.4486 15.0782C23.4971 15.0597 23.5346 15.0123 23.5763 14.9772C23.7634 14.8196 23.9323 14.6308 24.142 14.5124C24.356 14.3915 24.5409 14.2627 24.6615 14.049C24.6789 14.0183 24.7084 13.9921 24.7372 13.9701C24.9367 13.8183 25.086 13.6269 25.2059 13.4094C25.2247 13.3752 25.275 13.3579 25.3197 13.3367C25.3983 13.3753 25.4657 13.416 25.5382 13.4434C25.6465 13.4843 25.66 13.551 25.6168 13.6475C25.576 13.7385 25.5428 13.8329 25.504 13.9248C25.4694 14.0065 25.4919 14.0686 25.5709 14.1043C25.6486 14.1395 25.6575 14.1904 25.6211 14.2579L25.4297 14.6091L25.5603 14.7319Z" fill="#E94C28"/>
<path d="M31.188 15.5274C31.2121 15.5657 31.244 15.6013 31.259 15.6427C31.3796 15.977 31.6079 16.2474 31.8435 16.4963C32.0582 16.7231 32.2381 16.9742 32.4444 17.2016C32.6156 17.3904 32.8812 17.4953 33.1145 17.6387C32.9462 18.2509 32.6523 18.8031 32.2535 19.3104C32.2237 19.3068 32.1974 19.305 32.182 19.2912L31.5038 18.6805C31.3173 18.5162 31.257 18.2814 31.1455 18.0752C30.9904 17.7882 30.853 17.49 30.6758 17.2171C30.5276 16.989 30.4877 16.7403 30.4403 16.4874C30.4228 16.3943 30.4029 16.3017 30.3921 16.1898C30.3818 16.0167 30.3636 15.8624 30.3438 15.6946L30.5195 15.8054L30.5552 15.7869L30.4958 15.3649L30.7579 15.398V15.1636L31.188 15.5274Z" fill="#EB5659"/>
<path d="M50.4157 22.4982C50.2986 23.0929 49.9915 23.6077 49.6787 24.1152C49.5909 24.2576 49.4184 24.3506 49.28 24.4605L48.534 25.0397C48.4945 25.07 48.4497 25.104 48.4028 25.1127C48.0761 25.1735 47.7932 25.3377 47.4995 25.4768C47.4799 25.4861 47.4545 25.4832 47.4212 25.486C47.3344 25.0975 47.2581 24.7068 47.1921 24.3144C47.3209 24.2557 47.4514 24.2283 47.56 24.1643C47.7147 24.0731 47.8738 23.9739 47.9944 23.8447C48.2148 23.6087 48.3943 23.3352 48.617 23.1017C48.8537 22.8536 49.0014 22.5629 49.125 22.2534L50.4157 22.4982V22.4982Z" fill="#F5A02D"/>
<path d="M31.187 15.5175C31.046 15.4073 30.904 15.2872 30.7579 15.1636V15.398L30.4958 15.3649L30.5552 15.787L30.5195 15.8055L30.3437 15.6946C30.3636 15.8625 30.3818 16.0167 30.3921 16.1784C30.2656 16.0124 30.1275 15.8588 30.0965 15.629C30.07 15.4331 29.9609 15.2493 29.8991 15.0567C29.8064 14.7677 29.7488 14.4649 29.6293 14.1879C29.4856 13.855 29.5321 13.4986 29.4428 13.1631C29.3846 12.9445 29.2954 12.7339 29.2397 12.5148C29.2022 12.3671 29.199 12.2109 29.1724 12.0509L29.0811 10.7701C29.3347 10.7385 29.5898 10.7194 29.8454 10.7129C29.904 11.0525 29.9465 11.3798 29.9973 11.7059C30.0319 11.9284 30.0758 12.1496 30.1199 12.3706C30.1587 12.5654 30.2028 12.7593 30.246 12.9533C30.287 13.1373 30.2536 13.3374 30.3735 13.5044C30.5233 13.7128 30.5725 13.9575 30.636 14.1995C30.6901 14.4056 30.7969 14.5905 30.9663 14.7318C30.9734 15.0088 31.0594 15.2638 31.187 15.5175L31.187 15.5175Z" fill="#EB5A57"/>
<path d="M25.2735 22.2487C25.2039 22.5275 25.1233 22.8013 25.0462 23.0761C24.9768 23.3234 24.8419 23.5227 24.648 23.6964C24.4787 23.8482 24.3453 24.0387 24.1824 24.1983C23.9899 24.3868 23.7844 24.5615 23.6533 24.8027C23.6355 24.8355 23.5917 24.8545 23.5506 24.881C23.4844 24.6637 23.4369 24.4423 23.3686 24.2275C23.2175 23.7522 23.0247 23.2954 22.7195 22.8878L23.319 22.309C23.4073 22.2188 23.4724 22.1065 23.549 22.005L23.8446 21.6165C24.1088 21.7476 24.3693 21.8866 24.6382 22.0073C24.8412 22.0984 25.055 22.166 25.2735 22.2487L25.2735 22.2487Z" fill="#EA541C"/>
<path d="M35.5987 5.25146C35.725 5.27039 35.8512 5.295 35.9732 5.33259C36.4972 5.49392 36.9947 5.71402 37.4711 5.9846C37.608 6.06235 37.7739 6.08863 37.916 6.15935C38.1033 6.2526 38.2826 6.36258 38.461 6.47223L39.2273 6.95471C39.5246 7.13155 39.7649 7.3593 39.9499 7.65086C40.069 7.83873 40.2122 8.01154 40.3383 8.19534C40.3731 8.24601 40.3853 8.31182 40.4075 8.37081L40.6138 8.92859C40.2899 8.9767 39.9657 9.01454 39.6288 9.03934C39.6083 8.98192 39.6012 8.93739 39.5929 8.89311C39.5054 8.42518 39.2034 8.06569 38.9543 7.68203C38.8704 7.55282 38.7385 7.44805 38.6124 7.35302C38.3533 7.1578 38.0855 6.9735 37.8171 6.79088C37.6326 6.66542 37.4481 6.53709 37.2507 6.43418C37.0276 6.31786 36.7938 6.21883 36.5579 6.12992C36.2329 6.00743 35.9016 5.90145 35.573 5.7884L35.5987 5.25146Z" fill="#EB5D19"/>
<path d="M35.5708 5.7998C35.9015 5.90128 36.2329 6.00726 36.5578 6.12975C36.7937 6.21866 37.0275 6.31772 37.2506 6.43402C37.448 6.53692 37.6326 6.66525 37.817 6.79071C38.0855 6.97333 38.3532 7.15763 38.6123 7.35285C38.7384 7.44785 38.8703 7.55265 38.9542 7.68186C39.2034 8.06552 39.5053 8.42501 39.5928 8.89295C39.6011 8.93725 39.6082 8.98175 39.616 9.03733C39.2452 9.0314 38.8744 9.01431 38.4914 8.98458C38.4101 8.71899 38.364 8.46553 38.1508 8.26713C37.719 7.8652 37.3081 7.44132 36.8877 7.02732C36.8687 7.00859 36.8426 6.99561 36.8179 6.98387L35.5098 6.36346L35.5708 5.7998Z" fill="#EB5E24"/>
<path d="M25.3108 13.3328C25.2751 13.3579 25.2248 13.3751 25.2059 13.4094C25.0861 13.6269 24.9367 13.8183 24.7372 13.9701C24.7084 13.992 24.6789 14.0182 24.6616 14.049C24.541 14.2627 24.356 14.3914 24.142 14.5123C23.9324 14.6308 23.7634 14.8196 23.5763 14.9772C23.5346 15.0123 23.4971 15.0597 23.4486 15.0782C23.2579 15.1507 23.0635 15.2139 22.8592 15.2805C22.8557 14.9746 22.8648 14.6687 22.8697 14.3628C22.8705 14.3109 22.853 14.2587 22.857 14.1949C23.2376 14.1467 23.511 13.9335 23.7796 13.7103C23.8568 13.6462 23.948 13.5962 24.016 13.5242L24.8216 12.6502C24.8644 12.6033 24.9163 12.5569 24.9386 12.5004C25.0957 12.1024 25.2571 11.7055 25.3943 11.3006C25.4724 11.0699 25.5072 10.8249 25.5615 10.5864C25.7012 10.606 25.8409 10.6256 25.9922 10.6585C25.967 10.9046 25.9282 11.1369 25.8939 11.3699C25.8271 11.824 25.732 12.2708 25.5615 12.6994L25.3108 13.3328Z" fill="#E9511F"/>
<path d="M32.6977 24.7952C32.3033 24.6365 31.929 24.4613 31.6654 24.1135C31.5035 23.8999 31.3302 23.69 31.1346 23.5073C30.9334 23.3192 30.7982 23.1049 30.7178 22.8475C30.6694 22.6924 30.6086 22.541 30.5444 22.3802C30.963 22.2702 31.382 22.1435 31.7908 21.9541L32.5772 22.9516C32.746 23.1715 32.941 23.3562 33.2071 23.4557C33.0018 23.8527 32.8301 24.2626 32.7225 24.6969C32.715 24.7272 32.7119 24.7586 32.6977 24.7952Z" fill="#EA5741"/>
<path d="M25.3198 13.3366C25.3945 13.1216 25.4777 12.9103 25.5616 12.6993C25.7321 12.2708 25.8272 11.8239 25.894 11.3699L26.0039 10.6604C26.2141 10.6691 26.4244 10.6887 26.6345 10.7097C26.7502 10.7212 26.8656 10.7352 26.9915 10.7535C26.9648 11.0782 26.9805 11.4153 26.8778 11.7124C26.7324 12.1329 26.6895 12.5764 26.5307 12.9902C26.4561 13.1847 26.3963 13.3865 26.3033 13.5719C26.1905 13.7969 26.0452 14.0057 25.9233 14.2265C25.8688 14.3252 25.8358 14.4357 25.7955 14.5418C25.7571 14.6427 25.6939 14.7136 25.5705 14.7308C25.5153 14.6893 25.4701 14.6469 25.4298 14.609L25.6213 14.2579C25.6577 14.1903 25.6488 14.1394 25.571 14.1042C25.492 14.0685 25.4696 14.0065 25.5041 13.9247C25.543 13.8328 25.5762 13.7385 25.6169 13.6474C25.6601 13.5509 25.6466 13.4843 25.5384 13.4433C25.4658 13.4159 25.3984 13.3752 25.3198 13.3366V13.3366Z" fill="#EA522A"/>
<path d="M10.4397 19.5908C10.7739 19.7702 11.0142 20.043 11.2459 20.3264C11.2999 20.3924 11.3717 20.4458 11.4413 20.497C11.6697 20.665 11.7336 20.9318 11.8555 21.1636C11.8825 21.2149 11.8994 21.2715 11.9214 21.3362C11.7233 21.4382 11.5157 21.5145 11.3285 21.6247C11.0622 21.7814 10.8109 21.9631 10.5405 22.1294C10.446 22.0271 10.3678 21.9262 10.2817 21.8322L9.42261 20.9033C9.75134 20.5852 10.0427 20.2372 10.2835 19.849C10.3351 19.7658 10.382 19.6799 10.4397 19.5908L10.4397 19.5908Z" fill="#EB5E24"/>
<path d="M23.8405 21.6077C23.7459 21.7459 23.6469 21.8751 23.5489 22.005C23.4723 22.1065 23.4072 22.2188 23.319 22.3091C23.1281 22.5043 22.9257 22.6886 22.7188 22.8784C22.3522 22.3935 21.9032 22.0085 21.3831 21.7021C21.3563 21.6863 21.3258 21.6765 21.2925 21.6553C21.4666 21.4314 21.6455 21.2165 21.8236 21.001C21.8641 20.9521 21.899 20.8984 21.9416 20.8515L22.4499 20.3037C22.586 20.4502 22.7166 20.5983 22.8403 20.7518C23.1097 21.0862 23.445 21.3434 23.8063 21.5711C23.8177 21.5783 23.8264 21.5896 23.8405 21.6077Z" fill="#E95514"/>
<path d="M9.4141 20.9068L10.2816 21.8322C10.3677 21.9261 10.446 22.0271 10.5318 22.1334C10.1746 22.4521 9.85126 22.7956 9.59203 23.1952C9.56785 23.2325 9.54878 23.273 9.51873 23.3166C9.33967 23.1995 9.15905 23.0891 9.00186 22.9524C8.86874 22.8366 8.76007 22.6925 8.64529 22.557L8.14847 21.9563C8.1373 21.9427 8.13198 21.9244 8.1228 21.8986C8.58683 21.6104 9.02601 21.2986 9.41407 20.9067L9.4141 20.9068Z" fill="#EB5F2D"/>
<path d="M18.8069 9.13306C18.862 8.99304 18.9077 8.8405 18.9975 8.72015C19.2443 8.38919 19.4853 8.04825 19.7741 7.75518C20.0959 7.42861 20.4674 7.14988 20.8971 6.94336C21.0322 7.26258 21.1582 7.58564 21.276 7.91978C21.1164 8.03182 20.9568 8.12287 20.816 8.23672C20.6937 8.33567 20.5908 8.45871 20.4827 8.57418C20.3345 8.73253 20.1827 8.8884 20.0452 9.05556C19.9363 9.1879 19.8464 9.3356 19.7481 9.4765L18.8069 9.13308L18.8069 9.13306Z" fill="#F28D00"/>
<path d="M43.8069 21.1631C43.8016 21.1411 43.798 21.1253 43.8036 21.1141C43.953 20.815 44.0554 20.4923 44.3076 20.2476C44.4802 20.0801 44.6202 19.8804 44.7869 19.7064C44.8733 19.6161 44.9791 19.5389 45.0882 19.4764C45.2704 19.372 45.4622 19.2841 45.6554 19.1814C45.7046 19.27 45.7451 19.368 45.7927 19.4626L46.1318 20.1483C46.0939 20.2022 46.0599 20.2386 46.0227 20.2717C45.8053 20.4656 45.5704 20.6438 45.3738 20.8566C45.1806 21.0657 45.0259 21.3097 44.8542 21.5384L43.8069 21.1631L43.8069 21.1631Z" fill="#F08369"/>
<path d="M44.8594 21.5464C45.0259 21.3097 45.1806 21.0657 45.3739 20.8565C45.5705 20.6438 45.8053 20.4656 46.0228 20.2716C46.0599 20.2386 46.094 20.2021 46.1336 20.1575L46.9374 21.0829C46.99 21.1434 47.0601 21.189 47.1221 21.2583C46.9427 21.4638 46.7626 21.6519 46.5842 21.8414L46.0739 22.3888C45.7147 22.0484 45.3119 21.7697 44.8594 21.5464Z" fill="#F18B5E"/>
<path d="M49.114 22.2515C49.0013 22.563 48.8536 22.8537 48.6169 23.1018C48.3942 23.3353 48.2147 23.6088 47.9943 23.8448C47.8736 23.974 47.7146 24.0733 47.5599 24.1644C47.4513 24.2284 47.3208 24.2558 47.1907 24.3035C47.0715 24.0311 46.9618 23.7549 46.8552 23.4601C46.9867 23.3399 47.1303 23.2521 47.2401 23.1335C47.4437 22.9135 47.6308 22.678 47.8185 22.4441C47.9542 22.2749 48.0799 22.0977 48.21 21.9241L49.114 22.2515H49.114Z" fill="#F49C3A"/>
<path d="M19.7554 9.48317C19.8464 9.33555 19.9362 9.18785 20.0452 9.05551C20.1827 8.88836 20.3344 8.73251 20.4827 8.57413C20.5908 8.45864 20.6936 8.3356 20.816 8.23667C20.9568 8.12282 21.1164 8.03177 21.2772 7.92969C21.4999 8.25259 21.7152 8.58048 21.9227 8.91313C21.7876 9.08415 21.6545 9.23945 21.5172 9.39105L20.8187 10.1537C20.494 9.88996 20.1413 9.66966 19.7554 9.48317Z" fill="#F08000"/>
<path d="M20.8228 10.1619C21.0514 9.89948 21.2855 9.64637 21.517 9.39091C21.6543 9.23931 21.7875 9.08401 21.9263 8.92163C22.1239 9.09243 22.3114 9.27939 22.5137 9.44904C22.6631 9.57433 22.8318 9.67707 22.9997 9.80348C22.8469 10.0192 22.7052 10.2402 22.5214 10.4187C22.2752 10.6579 21.9963 10.8641 21.7315 11.0844C21.5734 10.9037 21.4225 10.716 21.2549 10.5444C21.123 10.4094 20.9704 10.2942 20.8228 10.1619L20.8228 10.1619Z" fill="#ED6E04"/>
<path d="M25.5554 10.5769C25.5072 10.8249 25.4724 11.0699 25.3943 11.3005C25.2572 11.7054 25.0957 12.1023 24.9386 12.5003C24.9164 12.5568 24.8645 12.6032 24.8216 12.6501L24.0161 13.5241C23.948 13.5961 23.8568 13.6461 23.7796 13.7103C23.511 13.9334 23.2376 14.1467 22.859 14.1831C22.8099 13.9163 22.7718 13.6494 22.7456 13.3711L23.7472 12.9112C23.7633 12.9039 23.7762 12.8889 23.7895 12.8764C24.0122 12.6655 24.2402 12.4597 24.4552 12.2413C24.5758 12.1187 24.7103 11.9904 24.7764 11.8383C24.9604 11.4151 25.1936 11.0071 25.2553 10.5391C25.3533 10.5485 25.4513 10.5579 25.5555 10.5768L25.5554 10.5769Z" fill="#EA541C"/>
<path d="M48.2012 21.9194C48.0799 22.0976 47.9543 22.2747 47.8185 22.4439C47.6308 22.6779 47.4438 22.9133 47.2401 23.1334C47.1304 23.2519 46.9867 23.3398 46.8541 23.45C46.6313 23.0806 46.3976 22.7135 46.0779 22.3969C46.2439 22.2062 46.4132 22.023 46.5841 21.8413L47.126 21.2666L48.2012 21.9194Z" fill="#F3944D"/>
<path d="M34.3648 19.2898C34.4558 19.3393 34.5433 19.3879 34.6203 19.4495C34.7833 19.5799 34.9419 19.7159 35.1003 19.8519L35.7205 20.393C35.7699 20.4375 35.8092 20.4974 35.8399 20.5569C35.9465 20.7635 36.0472 20.9731 36.1502 21.1916C35.8518 21.3197 35.5533 21.4378 35.244 21.5477L34.6138 20.797C34.5582 20.7307 34.5002 20.6665 34.442 20.6024C34.3439 20.4943 34.25 20.3817 34.1443 20.2814C34.0731 20.2138 33.9846 20.1639 33.9038 20.1061L34.3648 19.2898L34.3648 19.2898Z" fill="#EC6168"/>
<path d="M37.4537 9.13086L36.6636 9.41425C36.6555 9.41719 36.6489 9.42432 36.6305 9.42149C36.3237 8.89976 35.8813 8.52828 35.4045 8.19096C35.2862 8.10726 35.1618 8.03195 35.0403 7.95278L35.3038 7.28052C35.5825 7.39214 35.8533 7.50621 36.1136 7.64012C36.2244 7.69712 36.3159 7.79279 36.4117 7.87599C36.497 7.95009 36.5709 8.0376 36.6592 8.10772C36.7733 8.19836 36.9305 8.25436 37.009 8.36648C37.1777 8.60726 37.3078 8.87447 37.4537 9.13086Z" fill="#EC663E"/>
<path d="M33.8952 20.1101C33.9846 20.1637 34.073 20.2136 34.1443 20.2812C34.25 20.3816 34.3439 20.4942 34.442 20.6022L34.6138 20.7968L35.2343 21.5488C34.8723 21.7363 34.5327 21.9496 34.2159 22.2116L33.1257 20.9853L33.8048 20.2214C33.8345 20.1878 33.8595 20.1501 33.8953 20.1101L33.8952 20.1101Z" fill="#EB5E5B"/>
<path d="M24.2851 10.3199C24.448 10.3568 24.6108 10.3938 24.7789 10.4512C24.7565 10.5957 24.7044 10.7198 24.7058 10.8434C24.7092 11.1581 24.5822 11.4026 24.3529 11.6078C24.2953 11.6593 24.2514 11.7254 24.1957 11.7792L23.5634 12.3818C23.5512 12.3934 23.5298 12.3952 23.5132 12.4026L22.8724 12.6876L22.5986 12.8115C22.5347 12.6444 22.4709 12.4773 22.4153 12.2991C22.6271 12.1664 22.8468 12.0648 23.0302 11.9185C23.299 11.704 23.555 11.4697 23.791 11.2202C23.9466 11.0556 24.1425 10.9093 24.1847 10.6585C24.204 10.5433 24.2508 10.4326 24.2851 10.3198L24.2851 10.3199Z" fill="#EA580E"/>
<path d="M22.5969 12.822C22.69 12.7701 22.781 12.7283 22.8725 12.6875L23.5132 12.4025C23.5299 12.3951 23.5513 12.3933 23.5635 12.3817L24.1958 11.7791C24.2515 11.7253 24.2954 11.6592 24.3529 11.6077C24.5823 11.4025 24.7093 11.1579 24.7058 10.8433C24.7045 10.7197 24.7565 10.5956 24.7848 10.4604C24.9352 10.4758 25.0852 10.5023 25.2452 10.534C25.1936 11.0071 24.9605 11.4151 24.7764 11.8383C24.7103 11.9904 24.5757 12.1187 24.4552 12.2413C24.2402 12.4597 24.0122 12.6655 23.7895 12.8764C23.7763 12.889 23.7634 12.9039 23.7473 12.9112L22.7473 13.3599C22.6898 13.1843 22.6424 13.0085 22.5969 12.822Z" fill="#E95514"/>
<path d="M21.7332 11.0943C21.9965 10.8642 22.2753 10.658 22.5215 10.4189C22.7053 10.2404 22.8471 10.0193 23.0087 9.80786C23.2658 9.91803 23.5216 10.0376 23.782 10.1763C23.6674 10.3703 23.5598 10.5543 23.4262 10.7176C23.2659 10.9137 23.0905 11.0994 22.9088 11.2766C22.6873 11.4925 22.4523 11.6948 22.2232 11.9029L21.7332 11.0943H21.7332Z" fill="#EB620B"/>
<path d="M33.2116 23.447C32.9411 23.3563 32.7461 23.1715 32.5773 22.9516L31.801 21.9526C32.0395 21.7896 32.282 21.6353 32.5428 21.4841C32.5876 21.5123 32.616 21.5356 32.64 21.5627L33.3792 22.3978C33.4824 22.5114 33.6008 22.6114 33.7123 22.7176L33.2116 23.4471L33.2116 23.447Z" fill="#EA544C"/>
<path d="M37.4648 9.13284C37.3077 8.87472 37.1775 8.60751 37.0089 8.36673C36.9303 8.25461 36.7731 8.19862 36.659 8.10798C36.5707 8.03788 36.4969 7.95037 36.4116 7.87624C36.3158 7.79304 36.2243 7.69738 36.1135 7.64037C35.8531 7.50649 35.5824 7.3924 35.3057 7.27004C35.3384 7.12078 35.3813 6.97176 35.439 6.81445C35.7694 6.94268 36.1102 7.04108 36.3944 7.22491C36.7892 7.48016 37.1987 7.73115 37.4921 8.11552C37.5583 8.20218 37.6341 8.28224 37.7107 8.36031C37.8927 8.54587 37.992 8.76981 38.0357 9.02127L37.4648 9.13284Z" fill="#EC6333"/>
<path d="M30.9664 14.7196C30.7969 14.5906 30.6901 14.4057 30.636 14.1996C30.5725 13.9576 30.5233 13.7129 30.3736 13.5045C30.2536 13.3376 30.287 13.1374 30.246 12.9534L30.1199 12.3707C30.0758 12.1497 30.032 11.9285 29.9973 11.706L29.8577 10.7148C30.0346 10.6756 30.2119 10.6473 30.4005 10.6204C30.4534 10.9399 30.4955 11.2579 30.5358 11.5762C30.5443 11.6435 30.5556 11.7126 30.549 11.7793C30.4974 12.2961 30.6276 12.7925 30.6972 13.2978C30.7381 13.5942 30.8326 13.8697 30.8941 14.1565C30.9327 14.337 30.9433 14.5234 30.9664 14.7195L30.9664 14.7196Z" fill="#EB5E5B"/>
<path d="M35.0316 7.95776C35.1619 8.03219 35.2862 8.1075 35.4045 8.1912C35.8813 8.52849 36.3238 8.89997 36.6208 9.42316C36.3983 9.55278 36.1746 9.67297 35.9324 9.79C35.6099 9.35279 35.2214 9.00773 34.7712 8.72862C34.7266 8.70097 34.6726 8.68802 34.623 8.66827C34.6876 8.56259 34.7552 8.45854 34.816 8.35078L35.0316 7.95776Z" fill="#EC644B"/>
<path d="M38.0482 9.02306C37.9921 8.76977 37.8928 8.54583 37.7108 8.36027C37.6342 8.28219 37.5584 8.20214 37.4922 8.11548C37.1988 7.73113 36.7893 7.48011 36.3945 7.22487C36.1102 7.04104 35.7695 6.94261 35.4441 6.80481C35.4531 6.66089 35.472 6.51829 35.5003 6.36963L36.8179 6.98398C36.8426 6.99572 36.8687 7.0087 36.8877 7.02743L38.1508 8.26724C38.364 8.46567 38.4101 8.71913 38.4793 8.98282C38.3398 9.00403 38.2003 9.01448 38.0482 9.02304V9.02306Z" fill="#EB5F2D"/>
<path d="M22.2275 11.9109C22.4523 11.6947 22.6873 11.4924 22.9088 11.2765C23.0906 11.0993 23.2659 10.9137 23.4262 10.7175C23.5598 10.5542 23.6674 10.3702 23.7869 10.1851C23.946 10.2218 24.1047 10.2688 24.2743 10.3178C24.2509 10.4325 24.2042 10.5433 24.1848 10.6585C24.1426 10.9093 23.9467 11.0556 23.7911 11.2202C23.5552 11.4696 23.2992 11.7039 23.0303 11.9185C22.847 12.0648 22.6272 12.1664 22.4143 12.2891C22.3471 12.1665 22.2895 12.0428 22.2275 11.9109Z" fill="#E95A0F"/>
<path d="M34.6129 8.66919C34.6726 8.68806 34.7265 8.70099 34.7712 8.72867C35.2214 9.00778 35.6099 9.35284 35.9225 9.79109C35.7239 9.94845 35.5166 10.1016 35.2971 10.2501C35.2649 10.215 35.2504 10.1792 35.2246 10.1552L34.1519 9.16206L34.5456 8.74976C34.5679 8.72617 34.5839 8.69681 34.6129 8.66922L34.6129 8.66919Z" fill="#EB5E5B"/>
<path d="M33.7208 22.7139C33.6007 22.6115 33.4823 22.5114 33.3791 22.3979L32.6399 21.5628C32.6159 21.5357 32.5875 21.5124 32.5525 21.4832C32.7322 21.3171 32.9205 21.1551 33.1172 20.9893L34.2071 22.2157C34.0506 22.3862 33.89 22.5481 33.7208 22.7139Z" fill="#EB5A57"/>
<path d="M34.1434 9.16553L35.2245 10.1549C35.2503 10.179 35.2649 10.2148 35.2884 10.2539C35.1696 10.3713 35.0472 10.48 34.9066 10.5856C34.7902 10.5019 34.6984 10.4115 34.5923 10.3424C34.2497 10.1192 33.9577 9.84116 33.6819 9.54425L34.1434 9.16553Z" fill="#EC6168"/>
<path d="M33.6719 9.54568C33.9575 9.84128 34.2495 10.1193 34.5922 10.3425C34.6982 10.4115 34.7901 10.502 34.8969 10.5867C34.809 10.7073 34.7126 10.824 34.6077 10.9446C34.4196 10.8024 34.2197 10.6742 34.0663 10.5046C33.9292 10.353 33.7978 10.2675 33.5865 10.2793C33.5139 10.2833 33.4275 10.2028 33.3628 10.1442C33.2789 10.0682 33.2104 9.97565 33.1313 9.88172C33.3056 9.76449 33.4838 9.65577 33.6719 9.54568Z" fill="#ED656E"/>
</g>
<path d="M234.783 25.3201C233.148 25.3201 231.752 24.9734 230.597 24.2801C229.459 23.5868 228.597 22.6179 228.01 21.3734C227.423 20.1112 227.13 18.6534 227.13 17.0001C227.13 15.329 227.414 13.8712 227.983 12.6268C228.552 11.3645 229.379 10.3957 230.463 9.7201C231.565 9.02676 232.881 8.6801 234.41 8.6801C235.583 8.6801 236.588 8.90232 237.423 9.34676C238.277 9.77343 238.934 10.3868 239.397 11.1868H239.503V2.6001H243.93V20.6268H246.117V25.0001H241.637V22.3868H240.517C239.948 23.3112 239.183 24.0312 238.223 24.5468C237.281 25.0623 236.134 25.3201 234.783 25.3201ZM235.61 21.4801C236.801 21.4801 237.743 21.1512 238.437 20.4934C239.148 19.8179 239.503 18.8934 239.503 17.7201V16.2801C239.503 15.1068 239.148 14.1912 238.437 13.5334C237.743 12.8579 236.801 12.5201 235.61 12.5201C234.259 12.5201 233.245 12.9201 232.57 13.7201C231.894 14.5201 231.557 15.6134 231.557 17.0001C231.557 18.3868 231.894 19.4801 232.57 20.2801C233.245 21.0801 234.259 21.4801 235.61 21.4801Z" fill="white"/>
<path d="M214.246 25.2933C212.361 25.2933 210.886 24.8399 209.819 23.9333C208.753 23.0088 208.219 21.7999 208.219 20.3066C208.219 18.7244 208.77 17.5066 209.873 16.6533C210.975 15.7999 212.557 15.3733 214.619 15.3733H219.206V14.7599C219.206 13.0355 218.175 12.1733 216.113 12.1733C214.317 12.1733 213.233 12.7955 212.859 14.0399H208.459C208.815 12.2799 209.641 10.9466 210.939 10.0399C212.237 9.13327 213.961 8.67993 216.113 8.67993C218.495 8.67993 220.308 9.21326 221.553 10.2799C222.815 11.3466 223.446 12.9022 223.446 14.9466V20.6266H225.526V24.9999H221.046V22.3866H219.926C219.375 23.311 218.637 24.031 217.713 24.5466C216.788 25.0444 215.633 25.2933 214.246 25.2933ZM214.913 21.9333C215.748 21.9333 216.486 21.7822 217.126 21.4799C217.766 21.1777 218.273 20.7777 218.646 20.2799C219.019 19.7644 219.206 19.1866 219.206 18.5466V18.3066H214.833C213.233 18.3066 212.433 18.9022 212.433 20.0933C212.433 20.6799 212.655 21.1333 213.099 21.4533C213.544 21.7733 214.148 21.9333 214.913 21.9333Z" fill="white"/>
<path d="M198.574 25.3199C196.85 25.3199 195.347 24.9822 194.067 24.3066C192.787 23.6133 191.801 22.6444 191.107 21.3999C190.414 20.1377 190.067 18.6533 190.067 16.9466C190.067 15.2399 190.405 13.7733 191.081 12.5466C191.756 11.3022 192.716 10.351 193.961 9.69326C195.223 9.01771 196.707 8.67993 198.414 8.67993C200.085 8.67993 201.516 8.99993 202.707 9.63993C203.916 10.2799 204.841 11.1955 205.481 12.3866C206.121 13.5777 206.441 14.9999 206.441 16.6533V18.1466H194.307C194.485 19.3377 194.938 20.2444 195.667 20.8666C196.396 21.4888 197.356 21.7999 198.547 21.7999C199.49 21.7999 200.236 21.6399 200.787 21.3199C201.338 20.9999 201.73 20.511 201.961 19.8533H206.387C206.032 21.5599 205.17 22.9022 203.801 23.8799C202.432 24.8399 200.69 25.3199 198.574 25.3199ZM194.414 15.2133H202.201C202.058 14.1999 201.667 13.4444 201.027 12.9466C200.387 12.431 199.525 12.1733 198.441 12.1733C197.356 12.1733 196.467 12.431 195.774 12.9466C195.098 13.4622 194.645 14.2177 194.414 15.2133Z" fill="white"/>
<path d="M179.428 24.9999V13.3732H177.241V8.9999H181.721V12.1466H182.841C183.268 11.0266 183.943 10.191 184.868 9.6399C185.792 9.08879 186.832 8.81323 187.988 8.81323H189.348V12.6532H187.801C186.415 12.6532 185.392 13.0443 184.735 13.8266C184.095 14.6088 183.775 15.6399 183.775 16.9199V24.9999H179.428Z" fill="white"/>
<path d="M167.741 25.3201C166.39 25.3201 165.234 25.0623 164.274 24.5468C163.332 24.0312 162.576 23.3112 162.007 22.3868H160.887V25.0001H156.407V20.6268H158.594V2.6001H163.021V11.1868H163.127C163.607 10.3868 164.265 9.77343 165.101 9.34676C165.936 8.90232 166.941 8.6801 168.114 8.6801C169.661 8.6801 170.976 9.02676 172.061 9.7201C173.145 10.3957 173.972 11.3645 174.541 12.6268C175.11 13.8712 175.394 15.329 175.394 17.0001C175.394 18.6534 175.101 20.1112 174.514 21.3734C173.927 22.6179 173.065 23.5868 171.927 24.2801C170.79 24.9734 169.394 25.3201 167.741 25.3201ZM166.914 21.4801C168.265 21.4801 169.279 21.0801 169.954 20.2801C170.63 19.4801 170.967 18.3868 170.967 17.0001C170.967 15.6134 170.63 14.5201 169.954 13.7201C169.279 12.9201 168.265 12.5201 166.914 12.5201C165.723 12.5201 164.772 12.8579 164.061 13.5334C163.367 14.1912 163.021 15.1068 163.021 16.2801V17.7201C163.021 18.8934 163.367 19.8179 164.061 20.4934C164.772 21.1512 165.723 21.4801 166.914 21.4801Z" fill="white"/>
<path d="M143.627 25.3201C141.991 25.3201 140.596 24.9734 139.44 24.2801C138.303 23.5868 137.44 22.6179 136.854 21.3734C136.267 20.1112 135.974 18.6534 135.974 17.0001C135.974 15.329 136.258 13.8712 136.827 12.6268C137.396 11.3645 138.223 10.3957 139.307 9.7201C140.409 9.02676 141.725 8.6801 143.254 8.6801C144.427 8.6801 145.431 8.90232 146.267 9.34676C147.12 9.77343 147.778 10.3868 148.24 11.1868H148.347V2.6001H152.774V20.6268H154.96V25.0001H150.48V22.3868H149.36C148.791 23.3112 148.027 24.0312 147.067 24.5468C146.125 25.0623 144.978 25.3201 143.627 25.3201ZM144.454 21.4801C145.645 21.4801 146.587 21.1512 147.28 20.4934C147.991 19.8179 148.347 18.8934 148.347 17.7201V16.2801C148.347 15.1068 147.991 14.1912 147.28 13.5334C146.587 12.8579 145.645 12.5201 144.454 12.5201C143.103 12.5201 142.089 12.9201 141.414 13.7201C140.738 14.5201 140.4 15.6134 140.4 17.0001C140.4 18.3868 140.738 19.4801 141.414 20.2801C142.089 21.0801 143.103 21.4801 144.454 21.4801Z" fill="white"/>
<path d="M126.355 25.3199C124.631 25.3199 123.129 24.9822 121.849 24.3066C120.569 23.6133 119.582 22.6444 118.889 21.3999C118.195 20.1377 117.849 18.6533 117.849 16.9466C117.849 15.2399 118.186 13.7733 118.862 12.5466C119.538 11.3022 120.498 10.351 121.742 9.69326C123.004 9.01771 124.489 8.67993 126.195 8.67993C127.866 8.67993 129.298 8.99993 130.489 9.63993C131.698 10.2799 132.622 11.1955 133.262 12.3866C133.902 13.5777 134.222 14.9999 134.222 16.6533V18.1466H122.089C122.266 19.3377 122.72 20.2444 123.449 20.8666C124.178 21.4888 125.138 21.7999 126.329 21.7999C127.271 21.7999 128.018 21.6399 128.569 21.3199C129.12 20.9999 129.511 20.511 129.742 19.8533H134.169C133.813 21.5599 132.951 22.9022 131.582 23.8799C130.213 24.8399 128.471 25.3199 126.355 25.3199ZM122.195 15.2133H129.982C129.84 14.1999 129.449 13.4444 128.809 12.9466C128.169 12.431 127.306 12.1733 126.222 12.1733C125.138 12.1733 124.249 12.431 123.555 12.9466C122.88 13.4622 122.426 14.2177 122.195 15.2133Z" fill="white"/>
<path d="M99.7612 25L106.001 16.8133L100.081 9H105.041L108.535 13.6933L112.081 9H116.988L111.095 16.8133L117.308 25H112.348L108.535 19.88L104.668 25H99.7612Z" fill="white"/>
<path d="M93.5588 24.9999V8.99991H97.9855V24.9999H93.5588ZM95.7721 7.42657C95.0966 7.42657 94.5188 7.19546 94.0388 6.73324C93.5766 6.25324 93.3455 5.67546 93.3455 4.99991C93.3455 4.32435 93.5766 3.75546 94.0388 3.29324C94.5188 2.81324 95.0966 2.57324 95.7721 2.57324C96.4477 2.57324 97.0166 2.81324 97.4788 3.29324C97.9588 3.75546 98.1988 4.32435 98.1988 4.99991C98.1988 5.67546 97.9588 6.25324 97.4788 6.73324C97.0166 7.19546 96.4477 7.42657 95.7721 7.42657Z" fill="white"/>
<path d="M64.2666 24.9999V3.3999H70.4266L76.8266 18.6266H76.9333L83.3066 3.3999H89.4399V24.9999H84.9333V9.74657H84.8266L78.6399 24.9999H74.7733L68.6133 9.74657H68.5066V24.9999H64.2666Z" fill="white"/>
<defs>
<clipPath id="clip0_4002_71">
<rect width="56" height="31" fill="white"/>
</clipPath>
</defs>
</svg>
