<svg width="1200" height="400" viewBox="0 0 1200 400" fill="none" xmlns="http://www.w3.org/2000/svg">
<path d="M431.4 196.2C431.4 207.4 429.3 217 425.2 225C421.424 232.613 415.569 239.002 408.313 243.426C401.058 247.85 392.697 250.13 384.2 250C375.698 250.154 367.328 247.884 360.067 243.457C352.807 239.03 346.957 232.629 343.2 225C339 217 337 207.3 337 196.2C337 185 339 175.4 343.1 167.4C346.874 159.764 352.742 153.358 360.019 148.931C367.297 144.505 375.683 142.239 384.2 142.4C392.697 142.271 401.058 144.55 408.313 148.974C415.569 153.398 421.424 159.787 425.2 167.4C429.3 175.4 431.4 185 431.4 196.2ZM415.7 196.2C415.7 187.7 414.3 180.5 411.6 174.6C409.204 169.164 405.278 164.543 400.3 161.3C395.6 158.3 390.2 156.8 384.2 156.8C378.481 156.725 372.861 158.287 368 161.3C363.3 164.3 359.6 168.8 356.8 174.6C354.1 180.5 352.7 187.6 352.7 196.2C352.7 204.7 354.1 211.9 356.8 217.7C359.174 223.12 363.063 227.739 368 231C372.8 234 378.2 235.6 384.2 235.6C390.2 235.6 395.6 234.1 400.3 231C405.1 228 408.8 223.6 411.6 217.7C414.3 211.9 415.7 204.7 415.7 196.2ZM449.7 278V170H464.7V182.7H466C466.9 181.1 468.1 179.2 469.8 177.1C472.033 174.342 474.899 172.165 478.156 170.754C481.412 169.344 484.961 168.742 488.5 169C494.592 168.891 500.578 170.603 505.691 173.916C510.804 177.23 514.812 181.995 517.2 187.6C520.1 193.6 521.5 200.9 521.5 209.4C521.5 217.9 520.1 225.2 517.3 231.2C514.793 236.874 510.738 241.726 505.6 245.2C500.555 248.505 494.63 250.213 488.6 250.1C483.9 250.1 480 249.3 477 247.7C474.271 246.345 471.853 244.438 469.9 242.1C468.2 239.9 466.9 238 465.9 236.3H465.1V278H449.8M464.8 209.3C464.8 214.8 465.5 219.6 467.1 223.8C468.7 228 471.1 231.2 474.1 233.5C477.1 235.9 480.8 237 485.2 237C489.8 237 493.6 235.8 496.7 233.4C499.7 230.9 502.1 227.6 503.7 223.4C505.3 219.2 506.1 214.5 506.1 209.3C506.1 204.1 505.3 199.4 503.7 195.3C502.322 191.475 499.896 188.114 496.7 185.6C493.394 183.114 489.333 181.843 485.2 182C480.8 182 477.1 183.1 474 185.4C471 187.7 468.7 190.9 467 195C465.37 199.587 464.59 204.433 464.7 209.3H464.8ZM572.4 250C564.6 250 558 248.4 552.4 245C546.8 241.7 542.5 237 539.5 231C536.5 225 535 217.8 535 209.7C535 201.7 536.5 194.6 539.5 188.4C542.308 182.51 546.707 177.522 552.2 174C557.003 171.224 562.349 169.519 567.872 169.001C573.395 168.483 578.965 169.165 584.2 171C588.6 172.579 592.59 175.123 595.878 178.445C599.166 181.767 601.668 185.784 603.2 190.2C605.2 195.2 606.1 201.2 606.1 208.4V213.8H543.6V202.3H591.1C591.1 198.3 590.3 194.7 588.6 191.6C586.974 188.476 584.494 185.877 581.449 184.107C578.405 182.337 574.92 181.467 571.4 181.6C567.1 181.6 563.4 182.6 560.2 184.6C557.04 186.688 554.464 189.546 552.714 192.905C550.964 196.264 550.099 200.014 550.2 203.8V212.8C550.2 218 551.2 222.4 553 226.1C554.9 229.8 557.5 232.6 560.8 234.5C564.373 236.49 568.412 237.491 572.5 237.4C575.5 237.4 578.1 237 580.5 236.1C582.844 235.31 584.98 234.001 586.746 232.269C588.512 230.537 589.864 228.428 590.7 226.1L605.1 228.8C604 233.1 601.9 236.8 598.9 240C595.9 243.2 592.2 245.6 587.7 247.4C582.808 249.216 577.618 250.098 572.4 250ZM638.4 201.8V248.5H623.1V170H638V182.8H639C640.8 178.6 643.6 175.3 647.5 172.8C651.3 170.2 656.2 169 662.1 169C667.5 169 672.1 170.1 676.1 172.3C680.2 174.6 683.3 177.9 685.5 182.3C687.892 187.393 689.056 192.976 688.9 198.6V248.6H673.6V200.4C673.853 195.555 672.243 190.796 669.1 187.1C666.1 183.8 662.1 182.2 656.9 182.2C653.621 182.143 650.382 182.935 647.5 184.5C644.716 186.083 642.456 188.447 641 191.3C639.318 194.574 638.492 198.221 638.6 201.9L638.4 201.8ZM710.4 248.5V143.8H747.7C755.7 143.8 762.5 145.2 767.9 148C773.3 150.8 777.3 154.7 779.9 159.6C782.648 164.838 784.025 170.686 783.9 176.6C783.9 183.1 782.6 188.7 779.9 193.6C777.16 198.513 772.969 202.46 767.9 204.9C762.5 207.6 755.7 208.9 747.6 208.9H719.4V195.3H746.2C751.3 195.3 755.5 194.6 758.7 193.1C761.9 191.7 764.3 189.5 765.7 186.7C767.282 183.608 768.072 180.172 768 176.7C768 172.7 767.3 169.3 765.8 166.4C764.234 163.447 761.739 161.092 758.7 159.7C754.69 157.999 750.352 157.213 746 157.4H726.1V248.6H710.4M762.1 201.3L787.9 248.6H769.9L744.6 201.3H762.1ZM835.1 250.1C828.477 250.356 821.924 248.676 816.24 245.266C810.557 241.856 805.991 236.864 803.1 230.9C799.919 224.258 798.344 216.962 798.5 209.6C798.5 201.5 800 194.4 803 188.3C805.876 182.318 810.437 177.305 816.121 173.876C821.805 170.448 828.366 168.753 835 169C841.634 168.753 848.195 170.448 853.879 173.876C859.563 177.305 864.124 182.318 867 188.3C870.29 194.907 871.904 202.222 871.7 209.6C871.857 216.962 870.281 224.258 867.1 230.9C864.209 236.864 859.643 241.856 853.96 245.266C848.276 248.676 841.723 250.356 835.1 250.1ZM835.1 237.3C839.9 237.3 843.9 236 847 233.5C850.1 231 852.4 227.6 854 223.5C855.521 218.992 856.265 214.258 856.2 209.5C856.2 204.5 855.5 200 854 195.7C852.635 191.756 850.214 188.263 847 185.6C843.606 182.969 839.391 181.623 835.1 181.8C830.3 181.8 826.3 183 823.1 185.6C820.1 188.2 817.7 191.6 816.1 195.8C814.573 200.238 813.828 204.907 813.9 209.6C813.9 214.6 814.7 219.2 816.2 223.4C817.7 227.6 820 231 823.2 233.5C826.3 236 830.3 237.3 835.2 237.3H835.1ZM938.6 216V170H953.9V248.6H938.9V234.9H938.1C936.137 239.445 932.837 243.286 928.64 245.911C924.443 248.537 919.546 249.823 914.6 249.6C909.908 249.697 905.278 248.522 901.2 246.2C897.27 243.838 894.136 240.356 892.2 236.2C889.834 231.134 888.671 225.59 888.8 220V170H904.1V218.1C903.846 222.777 905.424 227.368 908.5 230.9C911.5 234.1 915.4 235.7 920.1 235.7C923.231 235.656 926.303 234.839 929.042 233.321C931.781 231.803 934.103 229.632 935.8 227C937.7 224.1 938.6 220.4 938.6 216ZM1011.1 170V182.3H968.1V170H1011.1ZM979.7 151.2H995V225.5C995 228.5 995.4 230.7 996.3 232.2C997.2 233.6 998.3 234.7 999.8 235.2C1001.2 235.7 1002.8 236 1004.4 236C1006.2 235.795 1008 235.561 1009.8 235.3L1012.5 247.9C1009.3 249.089 1005.91 249.665 1002.5 249.6C998.5 249.6 994.8 248.9 991.3 247.4C987.884 245.925 984.967 243.494 982.9 240.4C980.8 237.4 979.7 233.4 979.7 228.7V151.2ZM1061.8 250.2C1054.1 250.2 1047.4 248.5 1041.8 245.2C1036.3 241.8 1032 237.2 1029 231.1C1026 225.1 1024.4 217.9 1024.4 209.8C1024.24 202.438 1025.82 195.142 1029 188.5C1032 182.4 1036.2 177.5 1041.6 174.1C1046.4 171.324 1051.75 169.619 1057.27 169.101C1062.8 168.583 1068.36 169.265 1073.6 171.1C1078 172.679 1081.99 175.223 1085.28 178.545C1088.57 181.867 1091.07 185.884 1092.6 190.3C1094.6 195.3 1095.6 201.3 1095.6 208.5V213.9H1033V202.4H1080.4C1080.4 198.4 1079.6 194.8 1078 191.7C1076.36 188.568 1073.86 185.966 1070.8 184.196C1067.74 182.426 1064.23 181.56 1060.7 181.7C1056.4 181.7 1052.7 182.7 1049.5 184.7C1046.4 186.839 1043.87 189.71 1042.14 193.059C1040.42 196.409 1039.54 200.132 1039.6 203.9V212.9C1039.6 218.1 1040.5 222.5 1042.4 226.2C1044.2 229.9 1046.8 232.7 1050.2 234.6C1053.77 236.59 1057.81 237.591 1061.9 237.5C1064.59 237.512 1067.26 237.073 1069.8 236.2C1072.12 235.402 1074.24 234.101 1076.01 232.389C1077.77 230.678 1079.13 228.599 1080 226.3L1094.4 228.9C1093.3 233.092 1091.17 236.942 1088.2 240.1C1085.07 243.381 1081.24 245.911 1077 247.5C1072.11 249.319 1066.92 250.201 1061.7 250.1L1061.8 250.2ZM1112.5 248.6V170H1127.3V182.5H1128.1C1129.6 178.3 1132.1 174.9 1135.7 172.5C1139.4 170 1143.5 168.8 1148.1 168.8C1150.27 168.83 1152.44 168.963 1154.6 169.2V183.8C1151.99 183.13 1149.3 182.794 1146.6 182.8C1143.25 182.783 1139.95 183.609 1137 185.2C1134.2 186.672 1131.86 188.889 1130.23 191.606C1128.61 194.323 1127.77 197.435 1127.8 200.6V248.6H1112.5Z" fill="black"/>
<path d="M46.2 200.5C52.1 200.5 74.8 195.4 86.5 188.7C98.3 182.1 98.2999 182.1 122.6 164.8C153.4 143 175.1 150.3 210.8 150.3" fill="black"/>
<path d="M46.2 200.5C52.1 200.5 74.8 195.4 86.5 188.7C98.3 182.1 98.2999 182.1 122.6 164.8C153.4 143 175.1 150.3 210.8 150.3" stroke="black" stroke-width="35.3"/>
<path d="M245.3 150.5L185 185.3V115.7L245.3 150.5Z" fill="black" stroke="black" stroke-width="0.4"/>
<path d="M45 200.5C50.9 200.5 73.6 205.5 85.4 212.2C97.1 218.9 97.1 218.9 121.4 236.2C152.2 258 173.9 250.7 209.6 250.7" fill="black"/>
<path d="M45 200.5C50.9 200.5 73.6 205.5 85.4 212.2C97.1 218.9 97.1 218.9 121.4 236.2C152.2 258 173.9 250.7 209.6 250.7" stroke="black" stroke-width="35.3"/>
<path d="M244.1 250.4L183.8 215.7V285.2L244.1 250.4Z" fill="black" stroke="black" stroke-width="0.4"/>
</svg>
